<?xml version="1.0" encoding="UTF-8"?>
<!DOCTYPE svg PUBLIC "-//W3C//DTD SVG 1.0//EN" "http://www.w3.org/TR/2001/REC-SVG-20010904/DTD/svg10.dtd">
<!-- Creator: CorelDRAW 2020 (64-Bit Not for commercial use) -->
<svg xmlns="http://www.w3.org/2000/svg" xml:space="preserve" width="2472px" height="410px" version="1.0" style="shape-rendering:geometricPrecision; text-rendering:geometricPrecision; image-rendering:optimizeQuality; fill-rule:evenodd; clip-rule:evenodd"
viewBox="0 0 1183.64 196.15"
 xmlns:xlink="http://www.w3.org/1999/xlink"
 xmlns:xodm="http://www.corel.com/coreldraw/odm/2003">
 <defs>
  <style type="text/css">
   <![CDATA[
    .fil1 {fill:#FEFEFE}
    .fil0 {fill:#FEFEFE;fill-rule:nonzero}
   ]]>
  </style>
 </defs>
 <g id="Layer_x0020_1">
  <metadata id="CorelCorpID_0Corel-Layer"/>
  <g id="_2452993989888">
   <g>
    <path class="fil0" d="M386.86 116.93l-17.02 0 0 -78.45 -29.94 0 0 -14.19 76.82 0 0 14.19 -29.86 0 0 78.45zm57.93 -72.97c0,3.48 -0.05,6.32 -0.16,8.56 -0.12,2.25 -0.31,4.26 -0.6,6.06l0.29 0c0.97,-1.28 2.15,-2.58 3.55,-3.88 1.41,-1.28 2.95,-2.41 4.65,-3.36 1.68,-0.95 3.6,-1.73 5.75,-2.32 2.15,-0.59 4.52,-0.9 7.09,-0.9 2.22,0 4.38,0.22 6.48,0.67 2.11,0.42 4.07,1.11 5.89,2.03 1.82,0.92 3.47,2.13 4.99,3.62 1.49,1.46 2.76,3.21 3.78,5.25 0.88,1.77 1.51,3.76 1.94,5.95 0.4,2.23 0.61,4.92 0.61,8.11l0 43.18 -16.45 0 0 -40.98c0,-2.08 -0.1,-3.78 -0.29,-5.08 -0.19,-1.32 -0.49,-2.46 -0.97,-3.43 -0.97,-2.03 -2.34,-3.47 -4.13,-4.3 -1.8,-0.83 -3.86,-1.25 -6.17,-1.25 -3.17,0.04 -6.11,0.8 -8.82,2.29 -2.7,1.46 -5.16,3.64 -7.43,6.5l0 46.25 -16.46 0 0 -100.3 16.46 0 0 27.33zm96.9 61.48c3.19,0 6.52,-0.31 9.97,-0.95 3.48,-0.64 6.98,-1.56 10.53,-2.74l0 13.03c-2.11,0.92 -5.37,1.8 -9.77,2.62 -4.37,0.83 -8.94,1.23 -13.64,1.23 -4.75,0 -9.27,-0.61 -13.55,-1.84 -4.26,-1.21 -7.99,-3.19 -11.21,-5.91 -3.19,-2.72 -5.72,-6.27 -7.61,-10.6 -1.87,-4.35 -2.81,-9.6 -2.81,-15.79 0,-6.1 0.87,-11.42 2.64,-16.01 1.75,-4.56 4.12,-8.34 7.07,-11.35 2.96,-3 6.34,-5.25 10.17,-6.76 3.81,-1.49 7.76,-2.25 11.82,-2.25 4.26,0 8.18,0.64 11.78,1.94 3.57,1.28 6.69,3.31 9.29,6.08 2.63,2.77 4.66,6.31 6.1,10.66 1.47,4.38 2.2,9.51 2.2,15.47 -0.05,2.29 -0.12,4.25 -0.21,5.86l-44.03 0c0.24,3.12 0.92,5.77 2.08,7.99 1.16,2.2 2.65,4 4.54,5.37 1.87,1.37 4.04,2.39 6.53,3 2.5,0.64 5.2,0.95 8.11,0.95zm-6.58 -44.55c-2.08,0 -3.92,0.38 -5.55,1.14 -1.61,0.78 -3.01,1.79 -4.19,3.12 -1.18,1.32 -2.1,2.86 -2.79,4.61 -0.71,1.75 -1.16,3.62 -1.39,5.6l26.38 0c0,-1.98 -0.26,-3.85 -0.8,-5.6 -0.52,-1.75 -1.3,-3.29 -2.34,-4.61 -1.04,-1.33 -2.34,-2.34 -3.88,-3.12 -1.56,-0.76 -3.36,-1.14 -5.44,-1.14z"/>
    <path class="fil0" d="M625.56 24.29l0 78.45 43.36 0 0 14.19 -60.38 0 0 -92.64 17.02 0zm91.81 81.15c3.19,0 6.53,-0.31 9.98,-0.95 3.48,-0.64 6.98,-1.56 10.52,-2.74l0 13.03c-2.1,0.92 -5.37,1.8 -9.76,2.62 -4.38,0.83 -8.94,1.23 -13.65,1.23 -4.75,0 -9.26,-0.61 -13.54,-1.84 -4.26,-1.21 -8,-3.19 -11.21,-5.91 -3.19,-2.72 -5.72,-6.27 -7.62,-10.6 -1.86,-4.35 -2.81,-9.6 -2.81,-15.79 0,-6.1 0.88,-11.42 2.65,-16.01 1.75,-4.56 4.11,-8.34 7.07,-11.35 2.95,-3 6.34,-5.25 10.17,-6.76 3.8,-1.49 7.75,-2.25 11.82,-2.25 4.25,0 8.18,0.64 11.77,1.94 3.57,1.28 6.7,3.31 9.3,6.08 2.62,2.77 4.65,6.31 6.1,10.66 1.46,4.38 2.19,9.51 2.19,15.47 -0.04,2.29 -0.11,4.25 -0.21,5.86l-44.02 0c0.23,3.12 0.92,5.77 2.08,7.99 1.16,2.2 2.64,4 4.54,5.37 1.86,1.37 4.04,2.39 6.52,3 2.51,0.64 5.2,0.95 8.11,0.95zm-6.57 -44.55c-2.08,0 -3.93,0.38 -5.56,1.14 -1.61,0.78 -3,1.79 -4.18,3.12 -1.18,1.32 -2.11,2.86 -2.79,4.61 -0.71,1.75 -1.16,3.62 -1.4,5.6l26.39 0c0,-1.98 -0.26,-3.85 -0.8,-5.6 -0.52,-1.75 -1.3,-3.29 -2.35,-4.61 -1.04,-1.33 -2.34,-2.34 -3.87,-3.12 -1.56,-0.76 -3.36,-1.14 -5.44,-1.14zm84.27 48.9l-0.29 0c-0.92,0.97 -2.01,1.96 -3.31,2.98 -1.3,1.01 -2.79,1.98 -4.44,2.88 -1.66,0.9 -3.5,1.61 -5.53,2.15 -2.04,0.55 -4.24,0.83 -6.6,0.83 -3.19,0 -6.17,-0.49 -8.94,-1.49 -2.79,-0.99 -5.15,-2.43 -7.14,-4.3 -1.98,-1.87 -3.55,-4.11 -4.68,-6.79 -1.14,-2.65 -1.7,-5.62 -1.7,-8.89 0,-3.61 0.66,-6.83 1.96,-9.72 1.32,-2.86 3.17,-5.27 5.51,-7.25 2.36,-1.99 5.18,-3.5 8.46,-4.54 3.27,-1.04 6.91,-1.56 10.88,-1.56 2.91,0 5.58,0.19 8.04,0.54 2.43,0.38 4.59,0.83 6.43,1.32l0 -2.69c0,-1.56 -0.26,-3.08 -0.8,-4.52 -0.52,-1.46 -1.37,-2.74 -2.56,-3.88 -1.18,-1.13 -2.72,-2.01 -4.61,-2.69 -1.89,-0.66 -4.21,-0.99 -6.93,-0.99 -3.31,0 -6.64,0.35 -9.97,1.08 -3.31,0.74 -6.93,1.85 -10.81,3.31l0 -12.81c3.38,-1.47 6.95,-2.6 10.74,-3.38 3.8,-0.81 7.75,-1.21 11.91,-1.26 4.9,0 9.2,0.6 12.87,1.8 3.66,1.21 6.76,2.86 9.22,4.97 2.48,2.1 4.35,4.58 5.58,7.44 1.2,2.87 1.82,5.99 1.82,9.34l0 25.3c0,4.45 0.04,8.26 0.14,11.45 0.09,3.17 0.19,6 0.28,8.51l-14.82 0 -0.71 -7.14zm-1.35 -21.47c-1.56,-0.38 -3.36,-0.71 -5.39,-1.02 -2.03,-0.3 -4.09,-0.45 -6.15,-0.45 -4.02,0 -7.19,0.81 -9.5,2.39 -2.34,1.61 -3.5,4.04 -3.5,7.33 0,1.52 0.26,2.84 0.8,3.97 0.52,1.14 1.23,2.09 2.13,2.82 0.9,0.73 1.96,1.3 3.14,1.68 1.21,0.35 2.49,0.54 3.81,0.54 1.66,0 3.24,-0.21 4.71,-0.66 1.46,-0.43 2.83,-0.99 4.06,-1.66 1.26,-0.66 2.37,-1.42 3.36,-2.24 0.99,-0.85 1.85,-1.66 2.53,-2.44l0 -10.26zm63.72 17.26c1.61,0 3.15,-0.21 4.61,-0.61 1.45,-0.43 2.82,-1 4.12,-1.68 1.3,-0.71 2.43,-1.47 3.43,-2.3 0.99,-0.85 1.84,-1.65 2.53,-2.43l0 -31.87c-1.94,-1.59 -4.12,-2.89 -6.51,-3.95 -2.41,-1.04 -4.96,-1.56 -7.63,-1.56 -1.71,0 -3.5,0.35 -5.37,1.04 -1.87,0.68 -3.57,1.86 -5.13,3.54 -1.54,1.66 -2.84,3.98 -3.88,6.93 -1.04,2.96 -1.56,6.74 -1.56,11.3 0,6.77 1.3,12.04 3.93,15.82 2.6,3.81 6.43,5.72 11.46,5.77zm-32.41 -20.88c0,-5.86 0.8,-11.11 2.43,-15.7 1.61,-4.58 3.83,-8.44 6.62,-11.56 2.79,-3.12 6.01,-5.44 9.6,-7 3.62,-1.54 7.36,-2.32 11.23,-2.32 1.82,0 3.53,0.17 5.16,0.48 1.61,0.33 3.14,0.78 4.56,1.32 1.44,0.57 2.77,1.18 4.02,1.87 1.25,0.71 2.41,1.42 3.48,2.15l0.14 0c-0.05,-0.92 -0.1,-2.22 -0.12,-3.9 -0.02,-1.7 -0.02,-3.52 -0.02,-5.51l0 -27.9 16.45 0 0 80.34c0,4.45 0.05,8.26 0.14,11.45 0.1,3.17 0.19,6.03 0.29,8.51l-14.87 0 -0.69 -7.16 -0.28 0c-0.97,1.15 -2.13,2.29 -3.5,3.4 -1.37,1.09 -2.86,2.06 -4.52,2.86 -1.63,0.81 -3.45,1.44 -5.41,1.92 -1.97,0.45 -4.09,0.68 -6.41,0.68 -3.67,0 -7.17,-0.64 -10.52,-1.94 -3.34,-1.3 -6.34,-3.28 -9.01,-5.98 -2.65,-2.72 -4.78,-6.24 -6.39,-10.62 -1.58,-4.35 -2.38,-9.48 -2.38,-15.39z"/>
    <path class="fil0" d="M971.15 36.77c-4.61,0 -8.89,0.76 -12.79,2.3 -3.91,1.51 -7.24,3.73 -10.03,6.64 -2.81,2.91 -4.99,6.5 -6.55,10.78 -1.58,4.28 -2.36,9.18 -2.36,14.66 0,5.47 0.71,10.27 2.15,14.4 1.42,4.14 3.47,7.59 6.17,10.36 2.67,2.77 5.93,4.87 9.79,6.29 3.85,1.39 8.23,2.1 13.12,2.1 3.52,0 7.09,-0.26 10.73,-0.8 3.67,-0.52 7.07,-1.3 10.27,-2.32l0 14.5c-3.24,0.92 -6.72,1.63 -10.45,2.17 -3.76,0.52 -7.64,0.78 -11.66,0.78 -7.85,0 -14.76,-1.11 -20.71,-3.36 -5.94,-2.24 -10.93,-5.41 -14.95,-9.5 -3.99,-4.09 -7.02,-8.99 -9.03,-14.68 -2.01,-5.7 -3.03,-12.02 -3.03,-18.9 0,-7.07 1.09,-13.61 3.24,-19.67 2.15,-6.05 5.25,-11.3 9.32,-15.72 4.04,-4.45 9.1,-7.92 15.18,-10.48 6.08,-2.53 12.96,-3.83 20.62,-3.87 3.92,0 7.63,0.26 11.16,0.78 3.5,0.54 6.67,1.27 9.48,2.24l0 14.28c-3.69,-1.11 -7.14,-1.86 -10.33,-2.31 -3.17,-0.45 -6.29,-0.67 -9.34,-0.67zm83.25 53.51c0,-2.34 -0.57,-4.25 -1.73,-5.7 -1.16,-1.46 -2.72,-2.64 -4.7,-3.57 -1.99,-0.94 -4.21,-1.68 -6.67,-2.27 -2.46,-0.56 -5.06,-1.13 -7.76,-1.68 -3.59,-0.8 -7.04,-1.72 -10.3,-2.81 -3.27,-1.09 -6.15,-2.6 -8.64,-4.51 -2.48,-1.92 -4.46,-4.36 -5.93,-7.31 -1.49,-2.96 -2.22,-6.65 -2.22,-11.09 0,-4.89 0.85,-9.15 2.57,-12.79 1.71,-3.62 4.05,-6.62 6.98,-9.01 2.96,-2.37 6.38,-4.14 10.36,-5.32 3.94,-1.18 8.39,-1.77 13.33,-1.77 4.94,0 9.91,0.47 14.9,1.44 4.99,0.97 9.27,2.22 12.88,3.73l0 14.55c-4.8,-1.9 -9.41,-3.27 -13.83,-4.12 -4.4,-0.85 -8.56,-1.28 -12.43,-1.28 -5.58,0 -9.89,1.02 -12.91,3.05 -3.03,2.04 -4.54,5.09 -4.54,9.16 0,2.36 0.49,4.3 1.49,5.84 0.99,1.51 2.31,2.76 4.01,3.76 1.71,0.99 3.67,1.79 5.89,2.41 2.2,0.59 4.54,1.13 7.02,1.65 3.93,0.83 7.67,1.8 11.21,2.89 3.57,1.06 6.74,2.57 9.51,4.51 2.74,1.97 4.94,4.47 6.55,7.59 1.6,3.12 2.41,7.12 2.41,11.97 0,4.99 -0.92,9.31 -2.77,12.95 -1.84,3.65 -4.47,6.67 -7.87,9.06 -3.38,2.36 -7.5,4.14 -12.34,5.3 -4.87,1.15 -10.17,1.72 -15.94,1.72 -5.04,0 -10,-0.49 -14.87,-1.49 -4.87,-0.99 -8.92,-2.39 -12.16,-4.18l0 -14.33c4.59,1.99 9.04,3.43 13.39,4.33 4.32,0.89 8.82,1.34 13.43,1.34 2.67,0 5.32,-0.21 7.89,-0.66 2.58,-0.42 4.9,-1.18 6.96,-2.24 2.05,-1.07 3.71,-2.51 4.96,-4.36 1.25,-1.82 1.87,-4.06 1.87,-6.76zm36.34 26.65l0 -92.64 17.02 0 0 92.64 -17.02 0z"/>
   </g>
   <g>
    <path class="fil1" d="M49.13 66.85c0,10.88 3,23.18 7.75,31.37 2.66,4.59 6.02,9.64 9.64,13.56 4.85,5.24 11.17,9.89 17.36,13.56 4.6,2.73 17.08,8.38 23.47,8.38 4.42,0 8.25,-2.29 10.49,-4.52 4.93,-4.92 6.09,-13.12 1.86,-19.21 -1.9,-2.74 -3.37,-3.9 -6.42,-5.4 -3.65,-1.79 -9.48,-2.47 -16.49,-7.17 -4.52,-3.04 -9.11,-6.97 -11.88,-11.77 -6.09,-10.58 -7.1,-23.04 -1.53,-34.12 9.94,-19.77 33.97,-24.35 54.25,-18.6 5.14,1.46 9.09,2.99 13.54,5.11 2.06,0.97 3.94,2.11 5.85,3.25 2.09,1.25 3.93,2.4 5.82,3.73 1.86,1.32 3.57,2.71 5.4,4.15 2.87,2.28 7.51,6.29 9.61,9.04 4.24,5.55 7.24,7.27 11.51,17.15 14.27,33.05 1.68,59.22 1.68,65.18 0,12.71 15.5,20.53 26,10.99 5.48,-4.99 9.48,-25.85 9.48,-36.92 0,-21.79 -1.33,-33.1 -9.68,-52.63 -5.03,-11.78 -13.62,-21.81 -22.04,-30.27 -7.6,-7.64 -21.28,-16.59 -30.59,-21.26 -22.08,-11.07 -48.85,-14.37 -72.66,-4.88 -8.96,3.58 -19.48,10.17 -25.53,17.68 -10.06,12.5 -16.89,24.87 -16.89,43.6z"/>
    <path class="fil1" d="M0 72.77c0,19.97 2.26,32.98 9.29,49.84 4.62,11.12 13.17,22.08 21.75,30.56l14.18 11.74c14.86,10.75 37.3,20.66 57.58,20.66 19.75,0 36.65,-4.55 51.08,-16.69 4.06,-3.41 7.15,-6.49 10.46,-10.92 13.94,-18.69 17.45,-45.63 7.3,-66.7 -6.63,-13.76 -16,-23.82 -29.58,-31.38 -4.17,-2.32 -16.69,-8.04 -22.43,-8.04 -15.25,0 -22.03,21.6 -6.08,29.28 4.19,2.01 8.2,1.93 16.45,7.2 30.49,19.46 18.44,66.78 -24.47,66.78 -20.24,0 -41.64,-11.76 -55.16,-25.81 -1.09,-1.12 -1.24,-1.64 -2.26,-2.74 -15.62,-16.69 -20.58,-43.39 -16.01,-66.26 1.92,-9.59 6.99,-17.7 -0.81,-25.63 -6.39,-6.5 -16.26,-6.3 -22.54,0.46 -5.5,5.91 -8.75,28.83 -8.75,37.65z"/>
   </g>
   <path class="fil0" d="M295.08 150.87l0 36.66 -11.27 0 0 -14.24 -8.52 0 0 14.24 -11.27 0 0 -36.66 11.27 0 0 13.52 8.52 0 0 -13.52 11.27 0zm32.54 9.34l0 27.32 -9.89 0 0 -4.49c-1.45,3.36 -4.28,5.04 -8.49,5.04 -2.59,0 -4.6,-0.73 -6.03,-2.17 -1.42,-1.43 -2.13,-3.5 -2.13,-6.18l0 -19.52 10.71 0 0 17.18c0,1.09 0.15,1.84 0.44,2.28 0.31,0.44 0.88,0.66 1.74,0.66 0.92,0 1.66,-0.33 2.24,-0.98 0.58,-0.65 0.86,-1.58 0.86,-2.76l0 -16.38 10.55 0zm46.97 27.32l-10.39 0 0 -17.09c0,-1.14 -0.17,-1.94 -0.5,-2.4 -0.33,-0.46 -0.9,-0.68 -1.74,-0.68 -1.98,0 -2.98,1.45 -2.98,4.37l0 15.8 -10.28 0 0 -17.07c0,-2.18 -0.84,-3.27 -2.52,-3.27 -1.73,0 -2.59,1.09 -2.59,3.27l0 17.07 -10.33 0 0 -27.32 9.61 0 0 3.7c1.73,-2.83 4.22,-4.25 7.5,-4.25 3.51,0 6.08,1.42 7.66,4.25 1.77,-2.83 4.49,-4.25 8.15,-4.25 1.75,0 3.29,0.37 4.61,1.1 1.34,0.73 2.3,1.68 2.9,2.83 0.59,1.15 0.9,2.94 0.9,5.36l0 18.58zm33.16 0l-10.16 0c-0.26,-1.17 -0.39,-2.44 -0.39,-3.82 -1.93,2.91 -4.85,4.37 -8.77,4.37 -3.23,0 -5.64,-0.83 -7.24,-2.47 -1.6,-1.65 -2.4,-3.53 -2.4,-5.65 0,-2.88 1.31,-5.2 3.93,-6.98 2.62,-1.78 7.26,-2.85 13.93,-3.21l0 -0.62c0,-1.21 -0.27,-2.01 -0.81,-2.41 -0.54,-0.39 -1.34,-0.59 -2.38,-0.59 -2.46,0 -3.83,1 -4.12,3.02l-9.78 -0.94c1.39,-5.71 6.14,-8.57 14.23,-8.57 2.2,0 4.22,0.22 6.06,0.66 1.84,0.44 3.3,1.12 4.37,2.05 1.07,0.94 1.79,1.92 2.16,2.95 0.37,1.05 0.55,3.04 0.55,5.99l0 10.9c0,2.07 0.28,3.85 0.82,5.32zm-11.1 -12.76c-4.54,0.48 -6.81,1.94 -6.81,4.37 0,1.63 0.9,2.45 2.7,2.45 1.14,0 2.11,-0.34 2.91,-1.02 0.8,-0.67 1.2,-2.17 1.2,-4.49l0 -1.31zm42.5 12.76l-10.72 0 0 -17.2c0,-1.42 -0.21,-2.32 -0.65,-2.71 -0.44,-0.39 -0.98,-0.59 -1.64,-0.59 -1.94,0 -2.91,1.36 -2.91,4.08l0 16.42 -10.72 0 0 -27.32 9.95 0 0 3.87c1.46,-2.94 4.08,-4.42 7.85,-4.42 1.98,0 3.65,0.39 5.03,1.15 1.36,0.76 2.34,1.74 2.93,2.95 0.58,1.2 0.88,3.3 0.88,6.29l0 17.48zm17.18 -18.09l0 8.41 -13.57 0 0 -8.41 13.57 0zm24.06 4.13l10.28 0.61c-0.48,4.48 -2.14,7.91 -4.97,10.3 -2.83,2.4 -6.31,3.6 -10.44,3.6 -4.98,0 -8.99,-1.65 -12.04,-4.94 -3.06,-3.29 -4.59,-7.84 -4.59,-13.63 0,-5.75 1.45,-10.38 4.34,-13.91 2.9,-3.52 6.94,-5.28 12.12,-5.28 4.85,0 8.57,1.33 11.18,4.01 2.59,2.67 4.06,6.23 4.4,10.64l-10.5 0.57c0,-2.44 -0.46,-4.2 -1.4,-5.29 -0.93,-1.09 -2.04,-1.63 -3.3,-1.63 -3.53,0 -5.3,3.56 -5.3,10.7 0,3.99 0.46,6.71 1.38,8.14 0.92,1.44 2.21,2.15 3.87,2.15 2.96,0 4.62,-2.01 4.97,-6.04zm32.13 4.12l9.95 0.67c-0.59,2.69 -2.1,4.98 -4.53,6.88 -2.42,1.89 -5.7,2.84 -9.83,2.84 -4.6,0 -8.26,-1.33 -11,-3.99 -2.74,-2.66 -4.1,-5.95 -4.1,-9.88 0,-4.09 1.34,-7.53 4.05,-10.34 2.7,-2.81 6.31,-4.21 10.81,-4.21 4.37,0 7.89,1.32 10.58,3.97 2.7,2.64 4.04,6.24 4.04,10.8 0,0.37 0,0.89 -0.02,1.55l-18.25 0c0.04,1.74 0.34,3.02 0.92,3.86 0.56,0.83 1.65,1.26 3.27,1.26 2.33,0 3.7,-1.14 4.11,-3.41zm-0.77 -7.09c-0.02,-1.83 -0.39,-3.05 -1.1,-3.68 -0.71,-0.63 -1.6,-0.94 -2.67,-0.94 -2.51,0 -3.76,1.54 -3.76,4.62l7.53 0zm41.56 16.93l-10.72 0 0 -17.2c0,-1.42 -0.21,-2.32 -0.65,-2.71 -0.44,-0.39 -0.98,-0.59 -1.64,-0.59 -1.94,0 -2.91,1.36 -2.91,4.08l0 16.42 -10.72 0 0 -27.32 9.95 0 0 3.87c1.46,-2.94 4.08,-4.42 7.85,-4.42 1.99,0 3.65,0.39 5.03,1.15 1.36,0.76 2.34,1.74 2.93,2.95 0.59,1.2 0.88,3.3 0.88,6.29l0 17.48zm22.52 -27.32l0 6.93 -5.45 0 0 10.06c0,1.39 0.26,2.2 0.78,2.46 0.52,0.26 1.06,0.39 1.61,0.39 0.86,0 1.87,-0.15 3.06,-0.44l0 7.64c-2.11,0.4 -4.19,0.61 -6.22,0.61 -3.3,0 -5.72,-0.71 -7.27,-2.13 -1.54,-1.41 -2.32,-3.67 -2.32,-6.77l0.03 -3.2 0 -8.62 -4.07 0 0 -6.93 4.07 0 0.17 -8.9 10.16 -0.17 0 9.07 5.45 0zm21.62 17.48l9.95 0.67c-0.59,2.69 -2.1,4.98 -4.52,6.88 -2.42,1.89 -5.7,2.84 -9.83,2.84 -4.6,0 -8.27,-1.33 -11.01,-3.99 -2.73,-2.66 -4.1,-5.95 -4.1,-9.88 0,-4.09 1.35,-7.53 4.05,-10.34 2.7,-2.81 6.31,-4.21 10.82,-4.21 4.36,0 7.89,1.32 10.58,3.97 2.69,2.64 4.04,6.24 4.04,10.8 0,0.37 -0.01,0.89 -0.03,1.55l-18.25 0c0.04,1.74 0.34,3.02 0.92,3.86 0.57,0.83 1.66,1.26 3.27,1.26 2.34,0 3.7,-1.14 4.11,-3.41zm-0.77 -7.09c-0.02,-1.83 -0.38,-3.05 -1.1,-3.68 -0.71,-0.63 -1.6,-0.94 -2.66,-0.94 -2.51,0 -3.77,1.54 -3.77,4.62l7.53 0zm25.2 16.93l-10.28 0 0 -27.32 8.96 0 0 5.58c1.02,-4.09 3.37,-6.13 7.08,-6.13 0.38,0 0.89,0.04 1.55,0.11l0 9.5c-0.75,-0.17 -1.42,-0.27 -2,-0.27 -3.54,0 -5.31,1.99 -5.31,5.96l0 12.57zm28.77 -9.84l9.94 0.67c-0.58,2.69 -2.09,4.98 -4.52,6.88 -2.42,1.89 -5.7,2.84 -9.83,2.84 -4.6,0 -8.26,-1.33 -11,-3.99 -2.74,-2.66 -4.11,-5.95 -4.11,-9.88 0,-4.09 1.35,-7.53 4.05,-10.34 2.7,-2.81 6.31,-4.21 10.82,-4.21 4.36,0 7.89,1.32 10.58,3.97 2.69,2.64 4.04,6.24 4.04,10.8 0,0.37 -0.01,0.89 -0.03,1.55l-18.24 0c0.03,1.74 0.33,3.02 0.91,3.86 0.57,0.83 1.66,1.26 3.27,1.26 2.34,0 3.7,-1.14 4.12,-3.41zm-0.77 -7.09c-0.02,-1.83 -0.39,-3.05 -1.1,-3.68 -0.72,-0.63 -1.61,-0.94 -2.67,-0.94 -2.51,0 -3.76,1.54 -3.76,4.62l7.53 0zm41.57 16.93l-10.05 0 0 -3.63c-1.49,2.78 -3.93,4.18 -7.34,4.18 -3.14,0 -5.69,-1.23 -7.65,-3.69 -1.95,-2.46 -2.93,-6.03 -2.93,-10.71 0,-4.38 0.98,-7.86 2.95,-10.44 1.96,-2.57 4.56,-3.85 7.79,-3.85 2.71,0 4.93,1.02 6.68,3.08l0 -11.6 10.55 0 0 36.66zm-10.55 -17.55c0,-2.44 -1.01,-3.67 -3.01,-3.67 -1.41,0 -2.33,0.78 -2.77,2.34 -0.43,1.55 -0.65,3.46 -0.65,5.71 0,4.42 1.12,6.63 3.36,6.63 0.85,0 1.58,-0.35 2.17,-1.05 0.6,-0.7 0.9,-1.77 0.9,-3.2l0 -6.76zm50.56 17.55l-2.02 -7.2 -9.98 0 -2.17 7.2 -9.12 0 11.34 -36.66 11.89 0 11.53 36.66 -11.47 0zm-9.96 -15.23l5.87 0 -2.95 -10.62 -2.92 10.62zm36.02 -21.43l0 36.66 -11.27 0 0 -36.66 11.27 0zm31.37 0l0 36.66 -11.27 0 0 -36.66 11.27 0zm47.31 36.66l-10.39 0 0 -17.09c0,-1.14 -0.16,-1.94 -0.49,-2.4 -0.33,-0.46 -0.91,-0.68 -1.74,-0.68 -1.99,0 -2.99,1.45 -2.99,4.37l0 15.8 -10.27 0 0 -17.07c0,-2.18 -0.85,-3.27 -2.52,-3.27 -1.74,0 -2.6,1.09 -2.6,3.27l0 17.07 -10.33 0 0 -27.32 9.62 0 0 3.7c1.72,-2.83 4.21,-4.25 7.49,-4.25 3.52,0 6.08,1.42 7.67,4.25 1.77,-2.83 4.49,-4.25 8.14,-4.25 1.75,0 3.29,0.37 4.62,1.1 1.34,0.73 2.3,1.68 2.89,2.83 0.6,1.15 0.9,2.94 0.9,5.36l0 18.58zm16.84 8.62l-10.72 0 0 -35.94 9.84 0 0 3.87c1.38,-2.94 3.95,-4.42 7.71,-4.42 3.26,0 5.81,1.26 7.66,3.79 1.84,2.54 2.76,5.98 2.76,10.35 0,4.36 -0.94,7.84 -2.83,10.41 -1.88,2.57 -4.37,3.87 -7.47,3.87 -3.04,0 -5.36,-1.17 -6.95,-3.49l0 11.56zm0 -18.62c0,1.22 0.27,2.16 0.83,2.83 0.55,0.67 1.24,1.01 2.06,1.01 1.28,0 2.16,-0.6 2.65,-1.79 0.48,-1.19 0.72,-3.02 0.72,-5.48 0,-2.85 -0.27,-4.85 -0.83,-6 -0.55,-1.16 -1.38,-1.73 -2.48,-1.73 -0.67,0 -1.32,0.25 -1.97,0.77 -0.65,0.53 -0.98,1.37 -0.98,2.55l0 7.84zm32.07 -26.66l0 36.66 -10.56 0 0 -36.66 10.56 0zm23.71 26.82l9.95 0.67c-0.59,2.69 -2.1,4.98 -4.52,6.88 -2.42,1.89 -5.7,2.84 -9.83,2.84 -4.6,0 -8.27,-1.33 -11,-3.99 -2.74,-2.66 -4.11,-5.95 -4.11,-9.88 0,-4.09 1.35,-7.53 4.05,-10.34 2.7,-2.81 6.31,-4.21 10.82,-4.21 4.36,0 7.89,1.32 10.58,3.97 2.69,2.64 4.04,6.24 4.04,10.8 0,0.37 -0.01,0.89 -0.03,1.55l-18.25 0c0.04,1.74 0.34,3.02 0.92,3.86 0.57,0.83 1.66,1.26 3.27,1.26 2.34,0 3.7,-1.14 4.11,-3.41zm-0.77 -7.09c-0.02,-1.83 -0.38,-3.05 -1.1,-3.68 -0.71,-0.63 -1.6,-0.94 -2.66,-0.94 -2.51,0 -3.77,1.54 -3.77,4.62l7.53 0zm56.25 16.93l-10.38 0 0 -17.09c0,-1.14 -0.17,-1.94 -0.5,-2.4 -0.33,-0.46 -0.9,-0.68 -1.74,-0.68 -1.99,0 -2.98,1.45 -2.98,4.37l0 15.8 -10.28 0 0 -17.07c0,-2.18 -0.84,-3.27 -2.52,-3.27 -1.73,0 -2.59,1.09 -2.59,3.27l0 17.07 -10.34 0 0 -27.32 9.62 0 0 3.7c1.72,-2.83 4.22,-4.25 7.5,-4.25 3.51,0 6.08,1.42 7.66,4.25 1.77,-2.83 4.49,-4.25 8.15,-4.25 1.75,0 3.28,0.37 4.61,1.1 1.34,0.73 2.3,1.68 2.9,2.83 0.59,1.15 0.89,2.94 0.89,5.36l0 18.58zm23.78 -9.84l9.94 0.67c-0.58,2.69 -2.09,4.98 -4.52,6.88 -2.42,1.89 -5.7,2.84 -9.83,2.84 -4.6,0 -8.26,-1.33 -11,-3.99 -2.74,-2.66 -4.11,-5.95 -4.11,-9.88 0,-4.09 1.35,-7.53 4.05,-10.34 2.71,-2.81 6.31,-4.21 10.82,-4.21 4.36,0 7.89,1.32 10.58,3.97 2.69,2.64 4.04,6.24 4.04,10.8 0,0.37 -0.01,0.89 -0.03,1.55l-18.24 0c0.03,1.74 0.34,3.02 0.91,3.86 0.57,0.83 1.66,1.26 3.27,1.26 2.34,0 3.7,-1.14 4.12,-3.41zm-0.77 -7.09c-0.02,-1.83 -0.39,-3.05 -1.1,-3.68 -0.72,-0.63 -1.61,-0.94 -2.67,-0.94 -2.51,0 -3.76,1.54 -3.76,4.62l7.53 0zm41.56 16.93l-10.72 0 0 -17.2c0,-1.42 -0.21,-2.32 -0.65,-2.71 -0.44,-0.39 -0.98,-0.59 -1.64,-0.59 -1.94,0 -2.91,1.36 -2.91,4.08l0 16.42 -10.72 0 0 -27.32 9.95 0 0 3.87c1.46,-2.94 4.08,-4.42 7.85,-4.42 1.98,0 3.65,0.39 5.03,1.15 1.36,0.76 2.34,1.74 2.93,2.95 0.58,1.2 0.88,3.3 0.88,6.29l0 17.48zm22.51 -27.32l0 6.93 -5.44 0 0 10.06c0,1.39 0.26,2.2 0.78,2.46 0.51,0.26 1.05,0.39 1.6,0.39 0.86,0 1.88,-0.15 3.06,-0.44l0 7.64c-2.1,0.4 -4.18,0.61 -6.22,0.61 -3.3,0 -5.71,-0.71 -7.26,-2.13 -1.54,-1.41 -2.32,-3.67 -2.32,-6.77l0.03 -3.2 0 -8.62 -4.07 0 0 -6.93 4.07 0 0.16 -8.9 10.17 -0.17 0 9.07 5.44 0zm31.46 27.32l-10.17 0c-0.26,-1.17 -0.38,-2.44 -0.38,-3.82 -1.94,2.91 -4.86,4.37 -8.78,4.37 -3.22,0 -5.63,-0.83 -7.24,-2.47 -1.6,-1.65 -2.4,-3.53 -2.4,-5.65 0,-2.88 1.31,-5.2 3.93,-6.98 2.62,-1.78 7.27,-2.85 13.94,-3.21l0 -0.62c0,-1.21 -0.28,-2.01 -0.82,-2.41 -0.54,-0.39 -1.34,-0.59 -2.38,-0.59 -2.46,0 -3.83,1 -4.11,3.02l-9.79 -0.94c1.4,-5.71 6.14,-8.57 14.24,-8.57 2.2,0 4.21,0.22 6.05,0.66 1.84,0.44 3.3,1.12 4.37,2.05 1.07,0.94 1.8,1.92 2.16,2.95 0.37,1.05 0.55,3.04 0.55,5.99l0 10.9c0,2.07 0.28,3.85 0.83,5.32zm-11.1 -12.76c-4.55,0.48 -6.82,1.94 -6.82,4.37 0,1.63 0.9,2.45 2.7,2.45 1.14,0 2.11,-0.34 2.92,-1.02 0.79,-0.67 1.2,-2.17 1.2,-4.49l0 -1.31zm32.73 -14.56l0 6.93 -5.45 0 0 10.06c0,1.39 0.26,2.2 0.78,2.46 0.52,0.26 1.06,0.39 1.61,0.39 0.86,0 1.87,-0.15 3.06,-0.44l0 7.64c-2.11,0.4 -4.19,0.61 -6.23,0.61 -3.29,0 -5.71,-0.71 -7.26,-2.13 -1.54,-1.41 -2.32,-3.67 -2.32,-6.77l0.03 -3.2 0 -8.62 -4.07 0 0 -6.93 4.07 0 0.17 -8.9 10.16 -0.17 0 9.07 5.45 0zm14.26 -10.5l0 8.47 -10.72 0 0 -8.47 10.72 0zm0 10.5l0 27.32 -10.72 0 0 -27.32 10.72 0zm18.98 27.87c-4.53,0 -8.12,-1.42 -10.78,-4.23 -2.67,-2.82 -4.01,-6.13 -4.01,-9.92 0,-4.07 1.4,-7.47 4.18,-10.19 2.78,-2.72 6.39,-4.08 10.85,-4.08 4.49,0 8.1,1.34 10.83,4.02 2.73,2.69 4.1,6.05 4.1,10.1 0,4.07 -1.39,7.47 -4.15,10.2 -2.77,2.73 -6.43,4.1 -11.02,4.1zm0.16 -6.49c1.65,0 2.67,-0.86 3.02,-2.59 0.37,-1.72 0.55,-3.53 0.55,-5.41 0,-2.56 -0.25,-4.4 -0.76,-5.53 -0.53,-1.13 -1.44,-1.69 -2.78,-1.69 -1.23,0 -2.13,0.58 -2.69,1.75 -0.57,1.16 -0.86,3.07 -0.86,5.74 0,3.13 0.3,5.2 0.88,6.21 0.59,1.02 1.47,1.52 2.64,1.52zm45.77 5.94l-10.71 0 0 -17.2c0,-1.42 -0.21,-2.32 -0.65,-2.71 -0.44,-0.39 -0.98,-0.59 -1.64,-0.59 -1.94,0 -2.91,1.36 -2.91,4.08l0 16.42 -10.72 0 0 -27.32 9.95 0 0 3.87c1.46,-2.94 4.08,-4.42 7.85,-4.42 1.98,0 3.65,0.39 5.02,1.15 1.37,0.76 2.35,1.74 2.94,2.95 0.58,1.2 0.87,3.3 0.87,6.29l0 17.48z"/>
  </g>
 </g>
</svg>
