<svg width="2472" height="410" viewBox="0 0 2472 410" fill="none" xmlns="http://www.w3.org/2000/svg">
<path d="M807.946 244.208H772.4V80.3675H709.871V50.7321H870.308V80.3675H807.946V244.208ZM928.931 91.8123C928.931 99.0802 928.827 105.011 928.597 109.69C928.346 114.389 927.949 118.587 927.344 122.346H927.949C929.975 119.673 932.44 116.958 935.364 114.243C938.308 111.569 941.524 109.209 945.075 107.225C948.584 105.241 952.593 103.612 957.084 102.38C961.574 101.148 966.524 100.5 971.891 100.5C976.527 100.5 981.038 100.96 985.424 101.9C989.831 102.777 993.924 104.218 997.725 106.139C1001.53 108.061 1004.97 110.588 1008.15 113.7C1011.26 116.749 1013.91 120.404 1016.04 124.664C1017.88 128.361 1019.19 132.517 1020.09 137.09C1020.93 141.748 1021.37 147.366 1021.37 154.028V244.208H987.011V158.623C987.011 154.279 986.803 150.728 986.406 148.013C986.009 145.256 985.382 142.876 984.38 140.85C982.354 136.61 979.493 133.603 975.755 131.869C971.995 130.136 967.693 129.259 962.869 129.259C956.248 129.342 950.108 130.929 944.448 134.041C938.81 137.09 933.672 141.643 928.931 147.616V244.208H894.555V34.7344H928.931V91.8123ZM1131.3 220.212C1137.97 220.212 1144.92 219.564 1152.13 218.228C1159.39 216.891 1166.7 214.97 1174.12 212.505V239.718C1169.71 241.639 1162.9 243.477 1153.71 245.19C1144.59 246.923 1135.04 247.759 1125.23 247.759C1115.31 247.759 1105.87 246.485 1096.93 243.916C1088.03 241.389 1080.24 237.254 1073.52 231.573C1066.85 225.892 1061.57 218.478 1057.62 209.435C1053.72 200.35 1051.75 189.386 1051.75 176.458C1051.75 163.718 1053.57 152.608 1057.27 143.022C1060.92 133.498 1065.87 125.604 1072.03 119.318C1078.22 113.052 1085.27 108.353 1093.27 105.199C1101.23 102.088 1109.48 100.5 1117.96 100.5C1126.86 100.5 1135.04 101.837 1142.56 104.552C1150.02 107.225 1156.53 111.465 1161.96 117.25C1167.46 123.035 1171.7 130.428 1174.7 139.513C1177.77 148.661 1179.3 159.374 1179.3 171.822C1179.19 176.604 1179.05 180.698 1178.86 184.06H1086.9C1087.4 190.576 1088.82 196.111 1091.25 200.747C1093.67 205.342 1096.78 209.101 1100.73 211.962C1104.63 214.823 1109.17 216.954 1114.37 218.228C1119.59 219.564 1125.23 220.212 1131.3 220.212ZM1117.56 127.17C1113.22 127.17 1109.38 127.964 1105.97 129.551C1102.61 131.18 1099.68 133.289 1097.22 136.067C1094.76 138.824 1092.83 142.04 1091.39 145.695C1089.91 149.35 1088.97 153.255 1088.49 157.39H1143.58C1143.58 153.255 1143.04 149.35 1141.91 145.695C1140.83 142.04 1139.2 138.824 1137.03 136.067C1134.85 133.289 1132.14 131.18 1128.92 129.551C1125.67 127.964 1121.91 127.17 1117.56 127.17Z" fill="#004E89"/>
<path d="M1306.46 50.7321V214.573H1397.02V244.208H1270.92V50.7321H1306.46ZM1498.21 220.212C1504.87 220.212 1511.84 219.564 1519.05 218.228C1526.32 216.891 1533.63 214.97 1541.02 212.505V239.718C1536.63 241.639 1529.81 243.477 1520.64 245.19C1511.49 246.923 1501.97 247.759 1492.13 247.759C1482.21 247.759 1472.79 246.485 1463.85 243.916C1454.95 241.389 1447.14 237.254 1440.44 231.573C1433.78 225.892 1428.49 218.478 1424.53 209.435C1420.64 200.35 1418.66 189.386 1418.66 176.458C1418.66 163.718 1420.49 152.608 1424.19 143.022C1427.85 133.498 1432.77 125.604 1438.96 119.318C1445.12 113.052 1452.2 108.353 1460.2 105.199C1468.13 102.088 1476.38 100.5 1484.88 100.5C1493.76 100.5 1501.97 101.837 1509.46 104.552C1516.92 107.225 1523.46 111.465 1528.89 117.25C1534.36 123.035 1538.6 130.428 1541.63 139.513C1544.67 148.661 1546.2 159.374 1546.2 171.822C1546.12 176.604 1545.97 180.698 1545.76 184.06H1453.83C1454.31 190.576 1455.75 196.111 1458.17 200.747C1460.59 205.342 1463.68 209.101 1467.65 211.962C1471.54 214.823 1476.09 216.954 1481.27 218.228C1486.51 219.564 1492.13 220.212 1498.21 220.212ZM1484.49 127.17C1480.14 127.17 1476.28 127.964 1472.87 129.551C1469.51 131.18 1466.61 133.289 1464.14 136.067C1461.68 138.824 1459.74 142.04 1458.32 145.695C1456.83 149.35 1455.89 153.255 1455.39 157.39H1510.51C1510.51 153.255 1509.96 149.35 1508.84 145.695C1507.75 142.04 1506.12 138.824 1503.93 136.067C1501.76 133.289 1499.04 131.18 1495.85 129.551C1492.59 127.964 1488.83 127.17 1484.49 127.17ZM1660.48 229.297H1659.88C1657.95 231.322 1655.68 233.39 1652.96 235.52C1650.25 237.63 1647.14 239.655 1643.69 241.535C1640.22 243.415 1636.38 244.897 1632.14 246.025C1627.88 247.174 1623.29 247.759 1618.36 247.759C1611.69 247.759 1605.47 246.735 1599.69 244.647C1593.86 242.579 1588.93 239.572 1584.77 235.666C1580.64 231.761 1577.36 227.083 1575 221.486C1572.62 215.951 1571.45 209.748 1571.45 202.919C1571.45 195.38 1572.83 188.655 1575.54 182.619C1578.3 176.646 1582.16 171.613 1587.05 167.478C1591.98 163.322 1597.87 160.168 1604.72 157.996C1611.55 155.824 1619.15 154.738 1627.44 154.738C1633.52 154.738 1639.09 155.135 1644.23 155.866C1649.31 156.659 1653.82 157.599 1657.66 158.623V153.005C1657.66 149.747 1657.12 146.572 1655.99 143.565C1654.9 140.516 1653.13 137.842 1650.64 135.461C1648.18 133.101 1644.96 131.264 1641.02 129.843C1637.07 128.465 1632.22 127.776 1626.54 127.776C1619.63 127.776 1612.68 128.507 1605.72 130.031C1598.81 131.577 1591.25 133.895 1583.14 136.944V110.191C1590.2 107.121 1597.66 104.761 1605.57 103.132C1613.51 101.44 1621.76 100.605 1630.45 100.5C1640.68 100.5 1649.66 101.753 1657.33 104.26C1664.97 106.787 1671.45 110.233 1676.58 114.639C1681.76 119.025 1685.67 124.205 1688.24 130.178C1690.74 136.172 1692.04 142.688 1692.04 149.684V202.522C1692.04 211.816 1692.12 219.773 1692.33 226.435C1692.52 233.056 1692.73 238.966 1692.91 244.208H1661.96L1660.48 229.297ZM1657.66 184.457C1654.4 183.663 1650.64 182.974 1646.4 182.327C1642.16 181.7 1637.86 181.387 1633.56 181.387C1625.16 181.387 1618.54 183.079 1613.72 186.378C1608.83 189.741 1606.41 194.816 1606.41 201.687C1606.41 204.861 1606.95 207.618 1608.08 209.978C1609.17 212.359 1610.65 214.343 1612.53 215.868C1614.41 217.392 1616.62 218.583 1619.09 219.376C1621.61 220.107 1624.29 220.504 1627.04 220.504C1630.51 220.504 1633.81 220.065 1636.88 219.126C1639.93 218.228 1642.79 217.058 1645.36 215.659C1647.99 214.28 1650.31 212.693 1652.38 210.981C1654.45 209.205 1656.24 207.514 1657.66 205.885V184.457ZM1790.74 220.504C1794.1 220.504 1797.32 220.065 1800.37 219.23C1803.4 218.332 1806.26 217.142 1808.97 215.721C1811.69 214.239 1814.05 212.651 1816.13 210.918C1818.2 209.143 1819.98 207.472 1821.42 205.843V139.283C1817.37 135.963 1812.81 133.248 1807.82 131.034C1802.79 128.862 1797.46 127.776 1791.89 127.776C1788.32 127.776 1784.58 128.507 1780.67 129.948C1776.77 131.368 1773.22 133.832 1769.96 137.341C1766.74 140.808 1764.03 145.653 1761.86 151.814C1759.68 157.996 1758.6 165.89 1758.6 175.414C1758.6 189.553 1761.31 200.559 1766.8 208.454C1772.23 216.411 1780.23 220.4 1790.74 220.504ZM1723.05 176.897C1723.05 164.658 1724.72 153.694 1728.13 144.108C1731.49 134.542 1736.13 126.481 1741.95 119.965C1747.78 113.449 1754.5 108.604 1762 105.346C1769.56 102.129 1777.37 100.5 1785.46 100.5C1789.26 100.5 1792.83 100.855 1796.23 101.503C1799.59 102.192 1802.79 103.132 1805.76 104.26C1808.76 105.45 1811.54 106.724 1814.15 108.165C1816.76 109.648 1819.18 111.131 1821.42 112.655H1821.71C1821.61 110.734 1821.5 108.019 1821.46 104.51C1821.42 100.96 1821.42 97.1588 1821.42 93.0028V34.7344H1855.77V202.522C1855.77 211.816 1855.88 219.773 1856.07 226.435C1856.28 233.056 1856.46 239.029 1856.67 244.208H1825.62L1824.18 229.255H1823.59C1821.56 231.656 1819.14 234.037 1816.28 236.356C1813.42 238.632 1810.31 240.658 1806.84 242.329C1803.44 244.02 1799.64 245.336 1795.54 246.338C1791.43 247.278 1787 247.759 1782.16 247.759C1774.49 247.759 1767.18 246.422 1760.18 243.707C1753.21 240.992 1746.94 236.857 1741.37 231.218C1735.83 225.537 1731.38 218.186 1728.02 209.038C1724.72 199.953 1723.05 189.24 1723.05 176.897Z" fill="#004E89"/>
<path d="M2028.22 76.7976C2018.59 76.7976 2009.65 78.3848 2001.51 81.601C1993.34 84.7546 1986.39 89.391 1980.56 95.4685C1974.69 101.546 1970.14 109.044 1966.88 117.982C1963.58 126.921 1961.95 137.154 1961.95 148.599C1961.95 160.023 1963.44 170.048 1966.44 178.673C1969.41 187.32 1973.69 194.525 1979.33 200.31C1984.9 206.095 1991.71 210.481 1999.77 213.446C2007.82 216.349 2016.96 217.832 2027.18 217.832C2034.53 217.832 2041.98 217.289 2049.58 216.161C2057.25 215.075 2064.35 213.446 2071.03 211.316V241.599C2064.27 243.52 2057 245.003 2049.21 246.131C2041.36 247.217 2033.25 247.76 2024.86 247.76C2008.46 247.76 1994.03 245.442 1981.6 240.743C1969.2 236.064 1958.78 229.444 1950.38 220.902C1942.05 212.36 1935.72 202.127 1931.52 190.243C1927.33 178.339 1925.2 165.14 1925.2 150.771C1925.2 136.006 1927.47 122.347 1931.96 109.691C1936.45 97.0557 1942.93 86.0913 1951.43 76.8602C1959.86 67.5665 1970.43 60.3195 1983.13 54.973C1995.83 49.6892 2010.2 46.9742 2026.19 46.8906C2034.38 46.8906 2042.13 47.4336 2049.5 48.5196C2056.81 49.6474 2063.43 51.172 2069.3 53.1978V83.0212C2061.59 80.703 2054.39 79.1366 2047.73 78.1968C2041.11 77.257 2034.59 76.7976 2028.22 76.7976ZM2202.09 188.552C2202.09 183.665 2200.89 179.676 2198.47 176.647C2196.05 173.598 2192.79 171.134 2188.66 169.192C2184.5 167.228 2179.86 165.683 2174.73 164.451C2169.59 163.281 2164.16 162.091 2158.52 160.942C2151.02 159.271 2143.82 157.35 2137.01 155.074C2130.18 152.797 2124.16 149.643 2118.96 145.654C2113.78 141.645 2109.65 136.549 2106.58 130.388C2103.47 124.206 2101.94 116.499 2101.94 107.227C2101.94 97.014 2103.72 88.1171 2107.31 80.515C2110.88 72.9548 2115.77 66.6893 2121.89 61.6979C2128.07 56.7482 2135.21 53.0516 2143.52 50.5872C2151.75 48.1228 2161.05 46.8906 2171.36 46.8906C2181.68 46.8906 2192.06 47.8722 2202.48 49.898C2212.9 51.9238 2221.84 54.5344 2229.38 57.688V88.0753C2219.36 84.1072 2209.73 81.246 2200.5 79.4708C2191.31 77.6956 2182.62 76.7976 2174.54 76.7976C2162.88 76.7976 2153.88 78.9278 2147.58 83.1674C2141.25 87.4279 2138.09 93.7977 2138.09 102.298C2138.09 107.227 2139.12 111.278 2141.21 114.494C2143.27 117.648 2146.03 120.259 2149.58 122.347C2153.15 124.415 2157.25 126.086 2161.88 127.38C2166.48 128.613 2171.36 129.74 2176.54 130.826C2184.75 132.56 2192.56 134.586 2199.95 136.862C2207.41 139.076 2214.03 142.229 2219.82 146.281C2225.54 150.395 2230.13 155.617 2233.5 162.133C2236.84 168.649 2238.53 177.002 2238.53 187.132C2238.53 197.553 2236.61 206.575 2232.74 214.177C2228.9 221.8 2223.41 228.107 2216.31 233.099C2209.25 238.028 2200.64 241.745 2190.54 244.168C2180.36 246.57 2169.3 247.76 2157.25 247.76C2146.72 247.76 2136.36 246.737 2126.19 244.648C2116.02 242.581 2107.56 239.657 2100.79 235.918V205.99C2110.38 210.147 2119.67 213.154 2128.76 215.034C2137.78 216.892 2147.18 217.832 2156.81 217.832C2162.38 217.832 2167.92 217.394 2173.28 216.454C2178.67 215.577 2183.52 213.989 2187.82 211.776C2192.1 209.541 2195.57 206.533 2198.18 202.67C2200.79 198.869 2202.09 194.191 2202.09 188.552ZM2277.98 244.21V50.7334H2313.53V244.21H2277.98Z" fill="#004E89"/>
<path fill-rule="evenodd" clip-rule="evenodd" d="M102.605 139.615C102.605 162.338 108.871 188.026 118.791 205.131C124.346 214.717 131.364 225.263 138.924 233.45C149.053 244.394 162.252 254.105 175.18 261.77C184.787 267.471 210.851 279.271 224.196 279.271C233.427 279.271 241.426 274.489 246.104 269.831C256.401 259.556 258.823 242.431 249.989 229.712C246.021 223.989 242.951 221.567 236.581 218.434C228.958 214.696 216.782 213.276 202.142 203.46C192.702 197.111 183.116 188.903 177.331 178.878C164.612 156.782 162.503 130.76 174.136 107.62C194.895 66.3306 245.081 56.7654 287.435 68.7741C298.17 71.8233 306.42 75.0187 315.713 79.4462C320.015 81.472 323.942 83.8529 327.931 86.2338C332.296 88.8443 336.138 91.2461 340.086 94.0238C343.97 96.7805 347.542 99.6835 351.363 102.691C357.357 107.453 367.048 115.827 371.434 121.571C380.289 133.162 386.554 136.754 395.472 157.388C425.275 226.412 398.981 281.067 398.981 293.515C398.981 320.059 431.352 336.391 453.281 316.467C464.726 306.046 473.08 262.48 473.08 239.361C473.08 193.853 470.302 170.232 452.863 129.444C442.358 104.842 424.418 83.8947 406.833 66.2262C390.961 50.2702 362.391 31.5784 342.947 21.8253C296.833 -1.29414 240.925 -8.1861 191.198 11.6335C172.486 19.1102 150.515 32.8733 137.88 48.5577C116.87 74.6636 102.605 100.498 102.605 139.615Z" fill="#004E89"/>
<path fill-rule="evenodd" clip-rule="evenodd" d="M0 151.979C0 193.686 4.71995 220.857 19.4019 256.069C29.0507 279.293 46.9071 302.182 64.8262 319.892L94.4407 344.411C125.475 366.862 172.341 387.559 214.695 387.559C255.942 387.559 291.238 378.056 321.374 352.702C329.853 345.581 336.307 339.148 343.22 329.896C372.333 290.863 379.663 234.599 358.465 190.595C344.619 161.858 325.05 140.848 296.688 125.059C287.98 120.214 261.832 108.268 249.844 108.268C217.995 108.268 203.835 153.379 237.146 169.418C245.897 173.616 254.272 173.449 271.501 184.455C335.179 225.097 310.013 323.923 220.397 323.923C178.126 323.923 133.433 299.363 105.196 270.02C102.92 267.681 102.607 266.595 100.476 264.297C67.8545 229.441 57.4957 173.679 67.04 125.915C71.0498 105.887 81.6384 88.9492 65.3483 72.3876C52.003 58.8125 31.3897 59.2302 18.2741 73.3483C6.78754 85.6911 0 133.559 0 151.979Z" fill="#004E89"/>
<path d="M616.266 315.087V391.65H592.729V361.91H574.936V391.65H551.398V315.087H574.936V343.323H592.729V315.087H616.266ZM684.225 334.593V391.65H663.57V382.273C660.542 389.29 654.632 392.799 645.839 392.799C640.43 392.799 636.232 391.274 633.246 388.267C630.28 385.28 628.797 380.957 628.797 375.36V334.593H651.165V370.473C651.165 372.749 651.478 374.316 652.084 375.235C652.731 376.154 653.922 376.613 655.718 376.613C657.639 376.613 659.185 375.924 660.396 374.566C661.607 373.209 662.192 371.267 662.192 368.802V334.593H684.225ZM782.321 391.65H760.622V355.958C760.622 353.577 760.267 351.906 759.577 350.946C758.888 349.985 757.698 349.526 755.943 349.526C751.808 349.526 749.72 352.554 749.72 358.652V391.65H728.25V356C728.25 351.447 726.496 349.171 722.987 349.171C719.374 349.171 717.578 351.447 717.578 356V391.65H696.004V334.593H716.075V342.32C719.688 336.41 724.888 333.444 731.738 333.444C739.069 333.444 744.436 336.41 747.736 342.32C751.432 336.41 757.113 333.444 764.757 333.444C768.412 333.444 771.628 334.217 774.385 335.742C777.183 337.266 779.188 339.25 780.441 341.652C781.673 344.054 782.321 347.792 782.321 352.846V391.65ZM851.575 391.65H830.356C829.813 389.207 829.541 386.554 829.541 383.672C825.511 389.75 819.412 392.799 811.225 392.799C804.48 392.799 799.446 391.065 796.105 387.64C792.763 384.194 791.093 380.268 791.093 375.84C791.093 369.826 793.828 364.98 799.3 361.263C804.772 357.545 814.462 355.311 828.393 354.559V353.264C828.393 350.737 827.829 349.066 826.701 348.231C825.573 347.416 823.902 346.999 821.73 346.999C816.593 346.999 813.732 349.087 813.126 353.306L792.701 351.343C795.604 339.417 805.524 333.444 822.42 333.444C827.014 333.444 831.233 333.904 835.076 334.823C838.919 335.742 841.968 337.162 844.202 339.104C846.437 341.067 847.941 343.114 848.713 345.265C849.486 347.458 849.862 351.614 849.862 357.775V380.539C849.862 384.863 850.447 388.58 851.575 391.65ZM828.393 365.001C818.911 366.004 814.17 369.053 814.17 374.128C814.17 377.532 816.05 379.245 819.809 379.245C822.19 379.245 824.216 378.534 825.886 377.114C827.557 375.715 828.393 372.582 828.393 367.737V365.001ZM917.153 391.65H894.764V355.728C894.764 352.763 894.326 350.883 893.407 350.069C892.488 349.254 891.36 348.836 889.982 348.836C885.93 348.836 883.904 351.677 883.904 357.357V391.65H861.516V334.593H882.296V342.675C885.345 336.535 890.817 333.444 898.691 333.444C902.826 333.444 906.314 334.259 909.196 335.846C912.036 337.433 914.083 339.48 915.315 342.007C916.526 344.513 917.153 348.899 917.153 355.144V391.65ZM953.033 353.87V371.434H924.692V353.87H953.033ZM1003.28 362.495L1024.75 363.769C1023.75 373.125 1020.28 380.289 1014.37 385.28C1008.46 390.293 1001.19 392.799 992.567 392.799C982.167 392.799 973.792 389.353 967.422 382.482C961.032 375.611 957.836 366.108 957.836 354.016C957.836 342.007 960.864 332.337 966.9 324.965C972.957 317.614 981.394 313.938 992.212 313.938C1002.34 313.938 1010.11 316.716 1015.56 322.313C1020.97 327.889 1024.04 335.324 1024.75 344.534L1002.82 345.725C1002.82 340.629 1001.86 336.953 999.898 334.677C997.956 332.4 995.638 331.272 993.006 331.272C985.634 331.272 981.937 338.707 981.937 353.619C981.937 361.952 982.898 367.633 984.819 370.619C986.741 373.627 989.435 375.109 992.902 375.109C999.084 375.109 1002.55 370.912 1003.28 362.495ZM1070.38 371.1L1091.16 372.499C1089.93 378.117 1086.78 382.899 1081.7 386.868C1076.65 390.815 1069.8 392.799 1061.17 392.799C1051.57 392.799 1043.92 390.021 1038.2 384.466C1032.48 378.91 1029.64 372.039 1029.64 363.832C1029.64 355.29 1032.44 348.105 1038.1 342.237C1043.74 336.368 1051.27 333.444 1060.67 333.444C1069.8 333.444 1077.15 336.201 1082.77 341.736C1088.41 347.249 1091.21 354.768 1091.21 364.291C1091.21 365.064 1091.21 366.15 1091.16 367.528H1053.05C1053.13 371.162 1053.76 373.835 1054.97 375.59C1056.14 377.323 1058.42 378.221 1061.8 378.221C1066.67 378.221 1069.53 375.84 1070.38 371.1ZM1068.78 356.292C1068.73 352.47 1067.96 349.922 1066.48 348.607C1065 347.291 1063.14 346.643 1060.9 346.643C1055.66 346.643 1053.05 349.86 1053.05 356.292H1068.78ZM1155.57 391.65H1133.18V355.728C1133.18 352.763 1132.75 350.883 1131.83 350.069C1130.91 349.254 1129.78 348.836 1128.4 348.836C1124.35 348.836 1122.32 351.677 1122.32 357.357V391.65H1099.94V334.593H1120.72V342.675C1123.77 336.535 1129.24 333.444 1137.11 333.444C1141.27 333.444 1144.73 334.259 1147.62 335.846C1150.46 337.433 1152.5 339.48 1153.73 342.007C1154.97 344.513 1155.57 348.899 1155.57 355.144V391.65ZM1202.61 334.593V349.066H1191.22V370.076C1191.22 372.979 1191.77 374.671 1192.85 375.214C1193.94 375.757 1195.07 376.028 1196.21 376.028C1198.01 376.028 1200.12 375.715 1202.61 375.109V391.065C1198.2 391.901 1193.85 392.339 1189.61 392.339C1182.72 392.339 1177.67 390.856 1174.43 387.891C1171.22 384.946 1169.59 380.226 1169.59 373.752L1169.65 367.069V349.066H1161.15V334.593H1169.65L1170 316.006L1191.22 315.651V334.593H1202.61ZM1247.76 371.1L1268.54 372.499C1267.31 378.117 1264.15 382.899 1259.1 386.868C1254.04 390.815 1247.19 392.799 1238.57 392.799C1228.96 392.799 1221.3 390.021 1215.57 384.466C1209.87 378.91 1207.01 372.039 1207.01 363.832C1207.01 355.29 1209.83 348.105 1215.47 342.237C1221.11 336.368 1228.65 333.444 1238.07 333.444C1247.17 333.444 1254.55 336.201 1260.16 341.736C1265.78 347.249 1268.6 354.768 1268.6 364.291C1268.6 365.064 1268.58 366.15 1268.54 367.528H1230.42C1230.51 371.162 1231.13 373.835 1232.35 375.59C1233.54 377.323 1235.81 378.221 1239.17 378.221C1244.06 378.221 1246.9 375.84 1247.76 371.1ZM1246.15 356.292C1246.11 352.47 1245.36 349.922 1243.85 348.607C1242.37 347.291 1240.51 346.643 1238.3 346.643C1233.06 346.643 1230.42 349.86 1230.42 356.292H1246.15ZM1298.78 391.65H1277.31V334.593H1296.02V346.247C1298.15 337.705 1303.06 333.444 1310.81 333.444C1311.6 333.444 1312.67 333.528 1314.05 333.674V353.515C1312.48 353.16 1311.08 352.951 1309.87 352.951C1302.48 352.951 1298.78 357.107 1298.78 365.398V391.65ZM1358.86 371.1L1379.62 372.499C1378.41 378.117 1375.26 382.899 1370.18 386.868C1365.13 390.815 1358.28 392.799 1349.65 392.799C1340.05 392.799 1332.4 390.021 1326.68 384.466C1320.96 378.91 1318.1 372.039 1318.1 363.832C1318.1 355.29 1320.92 348.105 1326.56 342.237C1332.19 336.368 1339.73 333.444 1349.15 333.444C1358.26 333.444 1365.63 336.201 1371.25 341.736C1376.87 347.249 1379.69 354.768 1379.69 364.291C1379.69 365.064 1379.67 366.15 1379.62 367.528H1341.53C1341.59 371.162 1342.22 373.835 1343.43 375.59C1344.62 377.323 1346.9 378.221 1350.26 378.221C1355.15 378.221 1357.99 375.84 1358.86 371.1ZM1357.26 356.292C1357.21 352.47 1356.44 349.922 1354.96 348.607C1353.46 347.291 1351.6 346.643 1349.38 346.643C1344.14 346.643 1341.53 349.86 1341.53 356.292H1357.26ZM1444.07 391.65H1423.09V384.069C1419.97 389.875 1414.88 392.799 1407.76 392.799C1401.2 392.799 1395.87 390.23 1391.78 385.092C1387.71 379.955 1385.66 372.499 1385.66 362.725C1385.66 353.577 1387.71 346.309 1391.82 340.921C1395.91 335.554 1401.34 332.88 1408.09 332.88C1413.75 332.88 1418.39 335.011 1422.04 339.313V315.087H1444.07V391.65ZM1422.04 354.997C1422.04 349.902 1419.93 347.333 1415.75 347.333C1412.81 347.333 1410.89 348.962 1409.97 352.22C1409.07 355.457 1408.61 359.446 1408.61 364.145C1408.61 373.376 1410.95 377.991 1415.63 377.991C1417.4 377.991 1418.93 377.261 1420.16 375.799C1421.41 374.337 1422.04 372.102 1422.04 369.115V354.997ZM1527.63 391.65L1523.42 376.613H1502.57L1498.04 391.65H1478.99L1502.68 315.087H1527.51L1551.59 391.65H1527.63ZM1506.83 359.843H1519.09L1512.93 337.663L1506.83 359.843ZM1582.06 315.087V391.65H1558.52V315.087H1582.06ZM1647.58 315.087V391.65H1624.04V315.087H1647.58ZM1746.38 391.65H1724.68V355.958C1724.68 353.577 1724.35 351.906 1723.66 350.946C1722.97 349.985 1721.76 349.526 1720.02 349.526C1715.87 349.526 1713.78 352.554 1713.78 358.652V391.65H1692.33V356C1692.33 351.447 1690.56 349.171 1687.07 349.171C1683.43 349.171 1681.64 351.447 1681.64 356V391.65H1660.06V334.593H1680.16V342.32C1683.75 336.41 1688.95 333.444 1695.8 333.444C1703.15 333.444 1708.5 336.41 1711.82 342.32C1715.51 336.41 1721.19 333.444 1728.82 333.444C1732.47 333.444 1735.69 334.217 1738.47 335.742C1741.26 337.266 1743.27 339.25 1744.5 341.652C1745.75 344.054 1746.38 347.792 1746.38 352.846V391.65ZM1781.55 409.653H1759.16V334.593H1779.71V342.675C1782.59 336.535 1787.96 333.444 1795.81 333.444C1802.62 333.444 1807.95 336.076 1811.81 341.36C1815.66 346.664 1817.58 353.849 1817.58 362.975C1817.58 372.081 1815.61 379.349 1811.67 384.716C1807.74 390.084 1802.54 392.799 1796.07 392.799C1789.72 392.799 1784.87 390.355 1781.55 385.51V409.653ZM1781.55 370.765C1781.55 373.313 1782.11 375.276 1783.28 376.676C1784.43 378.075 1785.87 378.785 1787.59 378.785C1790.26 378.785 1792.1 377.532 1793.12 375.047C1794.12 372.561 1794.62 368.74 1794.62 363.602C1794.62 357.65 1794.06 353.473 1792.89 351.071C1791.74 348.648 1790.01 347.458 1787.71 347.458C1786.31 347.458 1784.95 347.98 1783.6 349.066C1782.24 350.173 1781.55 351.927 1781.55 354.392V370.765ZM1848.53 315.087V391.65H1826.47V315.087H1848.53ZM1898.05 371.1L1918.83 372.499C1917.59 378.117 1914.44 382.899 1909.39 386.868C1904.33 390.815 1897.48 392.799 1888.86 392.799C1879.25 392.799 1871.58 390.021 1865.88 384.466C1860.16 378.91 1857.3 372.039 1857.3 363.832C1857.3 355.29 1860.12 348.105 1865.76 342.237C1871.4 336.368 1878.94 333.444 1888.36 333.444C1897.46 333.444 1904.83 336.201 1910.45 341.736C1916.07 347.249 1918.89 354.768 1918.89 364.291C1918.89 365.064 1918.87 366.15 1918.83 367.528H1880.71C1880.79 371.162 1881.42 373.835 1882.63 375.59C1883.82 377.323 1886.1 378.221 1889.46 378.221C1894.35 378.221 1897.19 375.84 1898.05 371.1ZM1896.44 356.292C1896.4 352.47 1895.64 349.922 1894.14 348.607C1892.66 347.291 1890.8 346.643 1888.58 346.643C1883.34 346.643 1880.71 349.86 1880.71 356.292H1896.44ZM2013.91 391.65H1992.24V355.958C1992.24 353.577 1991.88 351.906 1991.19 350.946C1990.5 349.985 1989.31 349.526 1987.56 349.526C1983.4 349.526 1981.33 352.554 1981.33 358.652V391.65H1959.86V356C1959.86 351.447 1958.11 349.171 1954.6 349.171C1950.99 349.171 1949.19 351.447 1949.19 356V391.65H1927.6V334.593H1947.69V342.32C1951.28 336.41 1956.5 333.444 1963.35 333.444C1970.68 333.444 1976.05 336.41 1979.35 342.32C1983.05 336.41 1988.73 333.444 1996.37 333.444C2000.03 333.444 2003.22 334.217 2006 335.742C2008.8 337.266 2010.8 339.25 2012.06 341.652C2013.29 344.054 2013.91 347.792 2013.91 352.846V391.65ZM2063.58 371.1L2084.34 372.499C2083.13 378.117 2079.97 382.899 2074.9 386.868C2069.84 390.815 2062.99 392.799 2054.37 392.799C2044.76 392.799 2037.12 390.021 2031.39 384.466C2025.67 378.91 2022.81 372.039 2022.81 363.832C2022.81 355.29 2025.63 348.105 2031.27 342.237C2036.93 336.368 2044.45 333.444 2053.87 333.444C2062.97 333.444 2070.34 336.201 2075.96 341.736C2081.58 347.249 2084.4 354.768 2084.4 364.291C2084.4 365.064 2084.38 366.15 2084.34 367.528H2046.24C2046.31 371.162 2046.95 373.835 2048.14 375.59C2049.33 377.323 2051.61 378.221 2054.97 378.221C2059.86 378.221 2062.7 375.84 2063.58 371.1ZM2061.97 356.292C2061.93 352.47 2061.16 349.922 2059.67 348.607C2058.17 347.291 2056.31 346.643 2054.1 346.643C2048.85 346.643 2046.24 349.86 2046.24 356.292H2061.97ZM2148.77 391.65H2126.38V355.728C2126.38 352.763 2125.94 350.883 2125.02 350.069C2124.1 349.254 2122.97 348.836 2121.6 348.836C2117.54 348.836 2115.52 351.677 2115.52 357.357V391.65H2093.13V334.593H2113.91V342.675C2116.96 336.535 2122.43 333.444 2130.3 333.444C2134.44 333.444 2137.93 334.259 2140.81 335.846C2143.65 337.433 2145.7 339.48 2146.93 342.007C2148.14 344.513 2148.77 348.899 2148.77 355.144V391.65ZM2195.78 334.593V349.066H2184.42V370.076C2184.42 372.979 2184.96 374.671 2186.05 375.214C2187.11 375.757 2188.24 376.028 2189.39 376.028C2191.18 376.028 2193.31 375.715 2195.78 375.109V391.065C2191.39 391.901 2187.05 392.339 2182.79 392.339C2175.9 392.339 2170.86 390.856 2167.63 387.891C2164.41 384.946 2162.78 380.226 2162.78 373.752L2162.84 367.069V349.066H2154.34V334.593H2162.84L2163.18 316.006L2184.42 315.651V334.593H2195.78ZM2261.48 391.65H2240.24C2239.7 389.207 2239.45 386.554 2239.45 383.672C2235.4 389.75 2229.3 392.799 2221.11 392.799C2214.39 392.799 2209.35 391.065 2205.99 387.64C2202.65 384.194 2200.98 380.268 2200.98 375.84C2200.98 369.826 2203.71 364.98 2209.19 361.263C2214.66 357.545 2224.37 355.311 2238.3 354.559V353.264C2238.3 350.737 2237.72 349.066 2236.59 348.231C2235.46 347.416 2233.79 346.999 2231.62 346.999C2226.48 346.999 2223.62 349.087 2223.03 353.306L2202.59 351.343C2205.51 339.417 2215.41 333.444 2232.33 333.444C2236.92 333.444 2241.12 333.904 2244.96 334.823C2248.8 335.742 2251.85 337.162 2254.09 339.104C2256.32 341.067 2257.85 343.114 2258.6 345.265C2259.37 347.458 2259.75 351.614 2259.75 357.775V380.539C2259.75 384.863 2260.33 388.58 2261.48 391.65ZM2238.3 365.001C2228.8 366.004 2224.06 369.053 2224.06 374.128C2224.06 377.532 2225.94 379.245 2229.7 379.245C2232.08 379.245 2234.1 378.534 2235.79 377.114C2237.44 375.715 2238.3 372.582 2238.3 367.737V365.001ZM2306.66 334.593V349.066H2295.27V370.076C2295.27 372.979 2295.82 374.671 2296.9 375.214C2297.99 375.757 2299.12 376.028 2300.26 376.028C2302.06 376.028 2304.17 375.715 2306.66 375.109V391.065C2302.25 391.901 2297.9 392.339 2293.64 392.339C2286.77 392.339 2281.72 390.856 2278.48 387.891C2275.27 384.946 2273.64 380.226 2273.64 373.752L2273.7 367.069V349.066H2265.2V334.593H2273.7L2274.05 316.006L2295.27 315.651V334.593H2306.66ZM2336.44 312.664V330.353H2314.05V312.664H2336.44ZM2336.44 334.593V391.65H2314.05V334.593H2336.44ZM2376.08 392.799C2366.62 392.799 2359.12 389.833 2353.56 383.965C2347.99 378.075 2345.19 371.162 2345.19 363.247C2345.19 354.747 2348.11 347.646 2353.92 341.965C2359.72 336.285 2367.26 333.444 2376.58 333.444C2385.95 333.444 2393.49 336.243 2399.2 341.84C2404.9 347.458 2407.76 354.475 2407.76 362.934C2407.76 371.434 2404.86 378.534 2399.09 384.236C2393.31 389.938 2385.66 392.799 2376.08 392.799ZM2376.41 379.245C2379.86 379.245 2381.99 377.448 2382.72 373.835C2383.49 370.243 2383.87 366.463 2383.87 362.537C2383.87 357.19 2383.34 353.347 2382.28 350.988C2381.17 348.628 2379.27 347.458 2376.47 347.458C2373.9 347.458 2372.02 348.669 2370.85 351.113C2369.66 353.535 2369.06 357.524 2369.06 363.101C2369.06 369.638 2369.69 373.961 2370.9 376.07C2372.13 378.2 2373.97 379.245 2376.41 379.245ZM2472 391.65H2449.63V355.728C2449.63 352.763 2449.19 350.883 2448.27 350.069C2447.36 349.254 2446.23 348.836 2444.85 348.836C2440.8 348.836 2438.77 351.677 2438.77 357.357V391.65H2416.38V334.593H2437.16V342.675C2440.21 336.535 2445.69 333.444 2453.56 333.444C2457.69 333.444 2461.18 334.259 2464.04 335.846C2466.9 337.433 2468.95 339.48 2470.18 342.007C2471.39 344.513 2472 348.899 2472 355.144V391.65Z" fill="#004E89"/>
</svg>
