<svg xmlns="http://www.w3.org/2000/svg" width="2472" height="410" fill="none" viewBox="0 0 2472 410"><path fill="#none" d="M807.946 244.208H772.4V80.368h-62.529V50.732h160.437v29.636h-62.362v163.84ZM928.931 91.812c0 7.268-.104 13.199-.334 17.878-.251 4.699-.648 8.897-1.253 12.656h.605c2.026-2.673 4.491-5.388 7.415-8.103 2.944-2.674 6.16-5.034 9.711-7.018 3.509-1.984 7.518-3.613 12.009-4.845 4.49-1.232 9.44-1.88 14.807-1.88 4.636 0 9.147.46 13.533 1.4 4.407.877 8.5 2.318 12.301 4.239 3.805 1.922 7.245 4.449 10.425 7.561 3.11 3.049 5.76 6.704 7.89 10.964 1.84 3.697 3.15 7.853 4.05 12.426.84 4.658 1.28 10.276 1.28 16.938v90.18h-34.359v-85.585c0-4.344-.208-7.895-.605-10.61-.397-2.757-1.024-5.137-2.026-7.163-2.026-4.24-4.887-7.247-8.625-8.981-3.76-1.733-8.062-2.61-12.886-2.61-6.621.083-12.761 1.67-18.421 4.782-5.638 3.049-10.776 7.602-15.517 13.575v96.592h-34.376V34.734h34.376v57.078Zm202.369 128.4c6.67 0 13.62-.648 20.83-1.984 7.26-1.337 14.57-3.258 21.99-5.723v27.213c-4.41 1.921-11.22 3.759-20.41 5.472-9.12 1.733-18.67 2.569-28.48 2.569-9.92 0-19.36-1.274-28.3-3.843-8.9-2.527-16.69-6.662-23.41-12.343-6.67-5.681-11.95-13.095-15.9-22.138-3.9-9.085-5.87-20.049-5.87-32.977 0-12.74 1.82-23.85 5.52-33.436 3.65-9.524 8.6-17.418 14.76-23.704 6.19-6.266 13.24-10.965 21.24-14.119 7.96-3.111 16.21-4.699 24.69-4.699 8.9 0 17.08 1.337 24.6 4.052 7.46 2.673 13.97 6.913 19.4 12.698 5.5 5.785 9.74 13.178 12.74 22.263 3.07 9.148 4.6 19.861 4.6 32.309-.11 4.782-.25 8.876-.44 12.238h-91.96c.5 6.516 1.92 12.051 4.35 16.687 2.42 4.595 5.53 8.354 9.48 11.215 3.9 2.861 8.44 4.992 13.64 6.266 5.22 1.336 10.86 1.984 16.93 1.984Zm-13.74-93.042c-4.34 0-8.18.794-11.59 2.381-3.36 1.629-6.29 3.738-8.75 6.516-2.46 2.757-4.39 5.973-5.83 9.628-1.48 3.655-2.42 7.56-2.9 11.695h55.09c0-4.135-.54-8.04-1.67-11.695-1.08-3.655-2.71-6.871-4.88-9.628-2.18-2.778-4.89-4.887-8.11-6.516-3.25-1.587-7.01-2.381-11.36-2.381ZM1306.46 50.732v163.841h90.56v29.635h-126.1V50.732h35.54Zm191.75 169.48c6.66 0 13.63-.648 20.84-1.984 7.27-1.337 14.58-3.258 21.97-5.723v27.213c-4.39 1.921-11.21 3.759-20.38 5.472-9.15 1.733-18.67 2.569-28.51 2.569-9.92 0-19.34-1.274-28.28-3.843-8.9-2.527-16.71-6.662-23.41-12.343-6.66-5.681-11.95-13.095-15.91-22.138-3.89-9.085-5.87-20.049-5.87-32.977 0-12.74 1.83-23.85 5.53-33.436 3.66-9.524 8.58-17.418 14.77-23.704 6.16-6.266 13.24-10.965 21.24-14.119 7.93-3.111 16.18-4.699 24.68-4.699 8.88 0 17.09 1.337 24.58 4.052 7.46 2.673 14 6.913 19.43 12.698 5.47 5.785 9.71 13.178 12.74 22.263 3.04 9.148 4.57 19.861 4.57 32.309-.08 4.782-.23 8.876-.44 12.238h-91.93c.48 6.516 1.92 12.051 4.34 16.687 2.42 4.595 5.51 8.354 9.48 11.215 3.89 2.861 8.44 4.992 13.62 6.266 5.24 1.336 10.86 1.984 16.94 1.984Zm-13.72-93.042c-4.35 0-8.21.794-11.62 2.381-3.36 1.629-6.26 3.738-8.73 6.516-2.46 2.757-4.4 5.973-5.82 9.628-1.49 3.655-2.43 7.56-2.93 11.695h55.12c0-4.135-.55-8.04-1.67-11.695-1.09-3.655-2.72-6.871-4.91-9.628-2.17-2.778-4.89-4.887-8.08-6.516-3.26-1.587-7.02-2.381-11.36-2.381Zm175.99 102.127h-.6c-1.93 2.025-4.2 4.093-6.92 6.223-2.71 2.11-5.82 4.135-9.27 6.015-3.47 1.88-7.31 3.362-11.55 4.49-4.26 1.149-8.85 1.734-13.78 1.734-6.67 0-12.89-1.024-18.67-3.112-5.83-2.068-10.76-5.075-14.92-8.981-4.13-3.905-7.41-8.583-9.77-14.18-2.38-5.535-3.55-11.738-3.55-18.567 0-7.539 1.38-14.264 4.09-20.3 2.76-5.973 6.62-11.006 11.51-15.141 4.93-4.156 10.82-7.31 17.67-9.482 6.83-2.172 14.43-3.258 22.72-3.258 6.08 0 11.65.397 16.79 1.128 5.08.793 9.59 1.733 13.43 2.757v-5.618c0-3.258-.54-6.433-1.67-9.44-1.09-3.049-2.86-5.723-5.35-8.104-2.46-2.36-5.68-4.197-9.62-5.618-3.95-1.378-8.8-2.067-14.48-2.067-6.91 0-13.86.731-20.82 2.255-6.91 1.546-14.47 3.864-22.58 6.913v-26.753c7.06-3.07 14.52-5.43 22.43-7.059 7.94-1.692 16.19-2.527 24.88-2.632 10.23 0 19.21 1.253 26.88 3.76 7.64 2.527 14.12 5.973 19.25 10.379 5.18 4.386 9.09 9.566 11.66 15.539 2.5 5.994 3.8 12.51 3.8 19.506v52.838c0 9.294.08 17.251.29 23.913.19 6.621.4 12.531.58 17.773h-30.95l-1.48-14.911Zm-2.82-44.84c-3.26-.794-7.02-1.483-11.26-2.13-4.24-.627-8.54-.94-12.84-.94-8.4 0-15.02 1.692-19.84 4.991-4.89 3.363-7.31 8.438-7.31 15.309 0 3.174.54 5.931 1.67 8.291 1.09 2.381 2.57 4.365 4.45 5.89 1.88 1.524 4.09 2.715 6.56 3.508 2.52.731 5.2 1.128 7.95 1.128 3.47 0 6.77-.439 9.84-1.378 3.05-.898 5.91-2.068 8.48-3.467a40.452 40.452 0 0 0 7.02-4.678c2.07-1.776 3.86-3.467 5.28-5.096v-21.428Zm133.08 36.047c3.36 0 6.58-.439 9.63-1.274a47.633 47.633 0 0 0 8.6-3.509c2.72-1.482 5.08-3.07 7.16-4.803 2.07-1.775 3.85-3.446 5.29-5.075v-66.56c-4.05-3.32-8.61-6.035-13.6-8.249-5.03-2.172-10.36-3.258-15.93-3.258-3.57 0-7.31.731-11.22 2.172-3.9 1.42-7.45 3.884-10.71 7.393-3.22 3.467-5.93 8.312-8.1 14.473-2.18 6.182-3.26 14.076-3.26 23.6 0 14.139 2.71 25.145 8.2 33.04 5.43 7.957 13.43 11.946 23.94 12.05Zm-67.69-43.607c0-12.239 1.67-23.203 5.08-32.789 3.36-9.566 8-17.627 13.82-24.143 5.83-6.516 12.55-11.361 20.05-14.619 7.56-3.217 15.37-4.846 23.46-4.846 3.8 0 7.37.355 10.77 1.003 3.36.689 6.56 1.629 9.53 2.757 3 1.19 5.78 2.464 8.39 3.905 2.61 1.483 5.03 2.966 7.27 4.49h.29c-.1-1.921-.21-4.636-.25-8.145-.04-3.55-.04-7.351-.04-11.507V34.734h34.35v167.788c0 9.294.11 17.251.3 23.913.21 6.621.39 12.594.6 17.773h-31.05l-1.44-14.953h-.59c-2.03 2.401-4.45 4.782-7.31 7.101-2.86 2.276-5.97 4.302-9.44 5.973-3.4 1.691-7.2 3.007-11.3 4.009-4.11.94-8.54 1.421-13.38 1.421-7.67 0-14.98-1.337-21.98-4.052-6.97-2.715-13.24-6.85-18.81-12.489-5.54-5.681-9.99-13.032-13.35-22.18-3.3-9.085-4.97-19.798-4.97-32.141ZM2028.22 76.798c-9.63 0-18.57 1.587-26.71 4.803-8.17 3.154-15.12 7.79-20.95 13.868-5.87 6.077-10.42 13.575-13.68 22.513-3.3 8.939-4.93 19.172-4.93 30.617 0 11.424 1.49 21.449 4.49 30.074 2.97 8.647 7.25 15.852 12.89 21.637 5.57 5.785 12.38 10.171 20.44 13.136 8.05 2.903 17.19 4.386 27.41 4.386 7.35 0 14.8-.543 22.4-1.671 7.67-1.086 14.77-2.715 21.45-4.845v30.283c-6.76 1.921-14.03 3.404-21.82 4.532-7.85 1.086-15.96 1.629-24.35 1.629-16.4 0-30.83-2.318-43.26-7.017-12.4-4.679-22.82-11.299-31.22-19.841-8.33-8.542-14.66-18.775-18.86-30.659-4.19-11.904-6.32-25.103-6.32-39.472 0-14.765 2.27-28.424 6.76-41.08 4.49-12.635 10.97-23.6 19.47-32.83 8.43-9.294 19-16.542 31.7-21.888 12.7-5.284 27.07-7.999 43.06-8.082 8.19 0 15.94.543 23.31 1.629 7.31 1.127 13.93 2.652 19.8 4.678V83.02c-7.71-2.318-14.91-3.884-21.57-4.824-6.62-.94-13.14-1.4-19.51-1.4Zm173.87 111.754c0-4.887-1.2-8.876-3.62-11.905-2.42-3.049-5.68-5.513-9.81-7.455-4.16-1.964-8.8-3.509-13.93-4.741-5.14-1.17-10.57-2.36-16.21-3.509-7.5-1.671-14.7-3.592-21.51-5.868-6.83-2.277-12.85-5.431-18.05-9.42-5.18-4.009-9.31-9.105-12.38-15.266-3.11-6.182-4.64-13.889-4.64-23.161 0-10.213 1.78-19.11 5.37-26.712 3.57-7.56 8.46-13.826 14.58-18.817 6.18-4.95 13.32-8.646 21.63-11.11 8.23-2.465 17.53-3.697 27.84-3.697 10.32 0 20.7.981 31.12 3.007 10.42 2.026 19.36 4.636 26.9 7.79v30.387c-10.02-3.968-19.65-6.829-28.88-8.604-9.19-1.775-17.88-2.673-25.96-2.673-11.66 0-20.66 2.13-26.96 6.37-6.33 4.26-9.49 10.63-9.49 19.13 0 4.929 1.03 8.98 3.12 12.196 2.06 3.154 4.82 5.765 8.37 7.853 3.57 2.068 7.67 3.739 12.3 5.033 4.6 1.233 9.48 2.36 14.66 3.446 8.21 1.734 16.02 3.76 23.41 6.036 7.46 2.214 14.08 5.367 19.87 9.419 5.72 4.114 10.31 9.336 13.68 15.852 3.34 6.516 5.03 14.869 5.03 24.999 0 10.421-1.92 19.443-5.79 27.045-3.84 7.623-9.33 13.93-16.43 18.922-7.06 4.929-15.67 8.646-25.77 11.069-10.18 2.402-21.24 3.592-33.29 3.592-10.53 0-20.89-1.023-31.06-3.112-10.17-2.067-18.63-4.991-25.4-8.73V205.99c9.59 4.157 18.88 7.164 27.97 9.044 9.02 1.858 18.42 2.798 28.05 2.798 5.57 0 11.11-.438 16.47-1.378 5.39-.877 10.24-2.465 14.54-4.678 4.28-2.235 7.75-5.243 10.36-9.106 2.61-3.801 3.91-8.479 3.91-14.118Zm75.89 55.658V50.733h35.55V244.21h-35.55Z"/><path fill="#004E89" fill-rule="evenodd" d="M102.605 139.615c0 22.723 6.266 48.411 16.186 65.516 5.555 9.586 12.573 20.132 20.133 28.319 10.129 10.944 23.328 20.655 36.256 28.32 9.607 5.701 35.671 17.501 49.016 17.501 9.231 0 17.23-4.782 21.908-9.44 10.297-10.275 12.719-27.4 3.885-40.119-3.968-5.723-7.038-8.145-13.408-11.278-7.623-3.738-19.799-5.158-34.439-14.974-9.44-6.349-19.026-14.557-24.811-24.582-12.719-22.096-14.828-48.118-3.195-71.258 20.759-41.29 70.945-50.855 113.299-38.846 10.735 3.05 18.985 6.245 28.278 10.672 4.302 2.026 8.229 4.407 12.218 6.788 4.365 2.61 8.207 5.012 12.155 7.79 3.884 2.757 7.456 5.66 11.277 8.667 5.994 4.762 15.685 13.136 20.071 18.88 8.855 11.591 15.12 15.183 24.038 35.817 29.803 69.024 3.509 123.679 3.509 136.127 0 26.544 32.371 42.876 54.3 22.952 11.445-10.421 19.799-53.987 19.799-77.106 0-45.508-2.778-69.129-20.217-109.917-10.505-24.602-28.445-45.55-46.03-63.218-15.872-15.956-44.442-34.648-63.886-44.4-46.114-23.12-102.022-30.012-151.749-10.193-18.712 7.477-40.683 21.24-53.318 36.925-21.01 26.106-35.275 51.94-35.275 91.057Z" clip-rule="evenodd"/><path fill="#004E89" fill-rule="evenodd" d="M0 151.979c0 41.707 4.72 68.878 19.402 104.09 9.649 23.224 27.505 46.113 45.424 63.823l29.615 24.519c31.034 22.451 77.9 43.148 120.254 43.148 41.247 0 76.543-9.503 106.679-34.857 8.479-7.121 14.933-13.554 21.846-22.806 29.113-39.033 36.443-95.297 15.245-139.301-13.846-28.737-33.415-49.747-61.777-65.536-8.708-4.845-34.856-16.791-46.844-16.791-31.849 0-46.009 45.111-12.698 61.15 8.751 4.198 17.126 4.031 34.355 15.037 63.678 40.642 38.512 139.468-51.104 139.468-42.271 0-86.964-24.56-115.201-53.903-2.276-2.339-2.589-3.425-4.72-5.723-32.621-34.856-42.98-90.618-33.436-138.382 4.01-20.028 14.598-36.966-1.692-53.527-13.345-13.576-33.958-13.158-47.074.96C6.788 85.691 0 133.56 0 151.98Z" clip-rule="evenodd"/><path fill="#004E89" d="M616.266 315.087v76.563h-23.537v-29.74h-17.793v29.74h-23.538v-76.563h23.538v28.236h17.793v-28.236h23.537Zm67.959 19.506v57.057H663.57v-9.377c-3.028 7.017-8.938 10.526-17.731 10.526-5.409 0-9.607-1.525-12.593-4.532-2.966-2.987-4.449-7.31-4.449-12.907v-40.767h22.368v35.88c0 2.276.313 3.843.919 4.762.647.919 1.838 1.378 3.634 1.378 1.921 0 3.467-.689 4.678-2.047 1.211-1.357 1.796-3.299 1.796-5.764v-34.209h22.033Zm98.096 57.057h-21.699v-35.692c0-2.381-.355-4.052-1.045-5.012-.689-.961-1.879-1.42-3.634-1.42-4.135 0-6.223 3.028-6.223 9.126v32.998h-21.47V356c0-4.553-1.754-6.829-5.263-6.829-3.613 0-5.409 2.276-5.409 6.829v35.65h-21.574v-57.057h20.071v7.727c3.613-5.91 8.813-8.876 15.663-8.876 7.331 0 12.698 2.966 15.998 8.876 3.696-5.91 9.377-8.876 17.021-8.876 3.655 0 6.871.773 9.628 2.298 2.798 1.524 4.803 3.508 6.056 5.91 1.232 2.402 1.88 6.14 1.88 11.194v38.804Zm69.254 0h-21.219c-.543-2.443-.815-5.096-.815-7.978-4.03 6.078-10.129 9.127-18.316 9.127-6.745 0-11.779-1.734-15.12-5.159-3.342-3.446-5.012-7.372-5.012-11.8 0-6.014 2.735-10.86 8.207-14.577 5.472-3.718 15.162-5.952 29.093-6.704v-1.295c0-2.527-.564-4.198-1.692-5.033-1.128-.815-2.799-1.232-4.971-1.232-5.137 0-7.998 2.088-8.604 6.307l-20.425-1.963c2.903-11.926 12.823-17.899 29.719-17.899 4.594 0 8.813.46 12.656 1.379s6.892 2.339 9.126 4.281c2.235 1.963 3.739 4.01 4.511 6.161.773 2.193 1.149 6.349 1.149 12.51v22.764c0 4.324.585 8.041 1.713 11.111Zm-23.182-26.649c-9.482 1.003-14.223 4.052-14.223 9.127 0 3.404 1.88 5.117 5.639 5.117 2.381 0 4.407-.711 6.077-2.131 1.671-1.399 2.507-4.532 2.507-9.377v-2.736Zm88.76 26.649h-22.389v-35.922c0-2.965-.438-4.845-1.357-5.659-.919-.815-2.047-1.233-3.425-1.233-4.052 0-6.078 2.841-6.078 8.521v34.293h-22.388v-57.057h20.78v8.082c3.049-6.14 8.521-9.231 16.395-9.231 4.135 0 7.623.815 10.505 2.402 2.84 1.587 4.887 3.634 6.119 6.161 1.211 2.506 1.838 6.892 1.838 13.137v36.506Zm35.88-37.78v17.564h-28.341V353.87h28.341Zm50.247 8.625 21.47 1.274c-1 9.356-4.47 16.52-10.38 21.511-5.91 5.013-13.18 7.519-21.803 7.519-10.4 0-18.775-3.446-25.145-10.317-6.39-6.871-9.586-16.374-9.586-28.466 0-12.009 3.028-21.679 9.064-29.051 6.057-7.351 14.494-11.027 25.312-11.027 10.128 0 17.898 2.778 23.348 8.375 5.41 5.576 8.48 13.011 9.19 22.221l-21.93 1.191c0-5.096-.96-8.772-2.922-11.048-1.942-2.277-4.26-3.405-6.892-3.405-7.372 0-11.069 7.435-11.069 22.347 0 8.333.961 14.014 2.882 17 1.922 3.008 4.616 4.49 8.083 4.49 6.182 0 9.648-4.197 10.378-12.614Zm67.1 8.605 20.78 1.399c-1.23 5.618-4.38 10.4-9.46 14.369-5.05 3.947-11.9 5.931-20.53 5.931-9.6 0-17.25-2.778-22.97-8.333-5.72-5.556-8.56-12.427-8.56-20.634 0-8.542 2.8-15.727 8.46-21.595 5.64-5.869 13.17-8.793 22.57-8.793 9.13 0 16.48 2.757 22.1 8.292 5.64 5.513 8.44 13.032 8.44 22.555 0 .773 0 1.859-.05 3.237h-38.11c.08 3.634.71 6.307 1.92 8.062 1.17 1.733 3.45 2.631 6.83 2.631 4.87 0 7.73-2.381 8.58-7.121Zm-1.6-14.808c-.05-3.822-.82-6.37-2.3-7.685-1.48-1.316-3.34-1.964-5.58-1.964-5.24 0-7.85 3.217-7.85 9.649h15.73Zm86.79 35.358h-22.39v-35.922c0-2.965-.43-4.845-1.35-5.659-.92-.815-2.05-1.233-3.43-1.233-4.05 0-6.08 2.841-6.08 8.521v34.293h-22.38v-57.057h20.78v8.082c3.05-6.14 8.52-9.231 16.39-9.231 4.16 0 7.62.815 10.51 2.402 2.84 1.587 4.88 3.634 6.11 6.161 1.24 2.506 1.84 6.892 1.84 13.137v36.506Zm47.04-57.057v14.473h-11.39v21.01c0 2.903.55 4.595 1.63 5.138 1.09.543 2.22.814 3.36.814 1.8 0 3.91-.313 6.4-.919v15.956c-4.41.836-8.76 1.274-13 1.274-6.89 0-11.94-1.483-15.18-4.448-3.21-2.945-4.84-7.665-4.84-14.139l.06-6.683v-18.003h-8.5v-14.473h8.5l.35-18.587 21.22-.355v18.942h11.39Zm45.15 36.507 20.78 1.399c-1.23 5.618-4.39 10.4-9.44 14.369-5.06 3.947-11.91 5.931-20.53 5.931-9.61 0-17.27-2.778-23-8.333-5.7-5.556-8.56-12.427-8.56-20.634 0-8.542 2.82-15.727 8.46-21.595 5.64-5.869 13.18-8.793 22.6-8.793 9.1 0 16.48 2.757 22.09 8.292 5.62 5.513 8.44 13.032 8.44 22.555 0 .773-.02 1.859-.06 3.237h-38.12c.09 3.634.71 6.307 1.93 8.062 1.19 1.733 3.46 2.631 6.82 2.631 4.89 0 7.73-2.381 8.59-7.121Zm-1.61-14.808c-.04-3.822-.79-6.37-2.3-7.685-1.48-1.316-3.34-1.964-5.55-1.964-5.24 0-7.88 3.217-7.88 9.649h15.73Zm52.63 35.358h-21.47v-57.057h18.71v11.654c2.13-8.542 7.04-12.803 14.79-12.803.79 0 1.86.084 3.24.23v19.841c-1.57-.355-2.97-.564-4.18-.564-7.39 0-11.09 4.156-11.09 12.447v26.252Zm60.08-20.55 20.76 1.399c-1.21 5.618-4.36 10.4-9.44 14.369-5.05 3.947-11.9 5.931-20.53 5.931-9.6 0-17.25-2.778-22.97-8.333-5.72-5.556-8.58-12.427-8.58-20.634 0-8.542 2.82-15.727 8.46-21.595 5.63-5.869 13.17-8.793 22.59-8.793 9.11 0 16.48 2.757 22.1 8.292 5.62 5.513 8.44 13.032 8.44 22.555 0 .773-.02 1.859-.07 3.237h-38.09c.06 3.634.69 6.307 1.9 8.062 1.19 1.733 3.47 2.631 6.83 2.631 4.89 0 7.73-2.381 8.6-7.121Zm-1.6-14.808c-.05-3.822-.82-6.37-2.3-7.685-1.5-1.316-3.36-1.964-5.58-1.964-5.24 0-7.85 3.217-7.85 9.649h15.73Zm86.81 35.358h-20.98v-7.581c-3.12 5.806-8.21 8.73-15.33 8.73-6.56 0-11.89-2.569-15.98-7.707-4.07-5.137-6.12-12.593-6.12-22.367 0-9.148 2.05-16.416 6.16-21.804 4.09-5.367 9.52-8.041 16.27-8.041 5.66 0 10.3 2.131 13.95 6.433v-24.226h22.03v76.563Zm-22.03-36.653c0-5.095-2.11-7.664-6.29-7.664-2.94 0-4.86 1.629-5.78 4.887-.9 3.237-1.36 7.226-1.36 11.925 0 9.231 2.34 13.846 7.02 13.846 1.77 0 3.3-.73 4.53-2.192 1.25-1.462 1.88-3.697 1.88-6.684v-14.118Zm105.59 36.653-4.21-15.037h-20.85l-4.53 15.037h-19.05l23.69-76.563h24.83l24.08 76.563h-23.96Zm-20.8-31.807h12.26l-6.16-22.18-6.1 22.18Zm75.23-44.756v76.563h-23.54v-76.563h23.54Zm65.52 0v76.563h-23.54v-76.563h23.54Zm98.8 76.563h-21.7v-35.692c0-2.381-.33-4.052-1.02-5.012-.69-.961-1.9-1.42-3.64-1.42-4.15 0-6.24 3.028-6.24 9.126v32.998h-21.45V356c0-4.553-1.77-6.829-5.26-6.829-3.64 0-5.43 2.276-5.43 6.829v35.65h-21.58v-57.057h20.1v7.727c3.59-5.91 8.79-8.876 15.64-8.876 7.35 0 12.7 2.966 16.02 8.876 3.69-5.91 9.37-8.876 17-8.876 3.65 0 6.87.773 9.65 2.298 2.79 1.524 4.8 3.508 6.03 5.91 1.25 2.402 1.88 6.14 1.88 11.194v38.804Zm35.17 18.003h-22.39v-75.06h20.55v8.082c2.88-6.14 8.25-9.231 16.1-9.231 6.81 0 12.14 2.632 16 7.916 3.85 5.304 5.77 12.489 5.77 21.615 0 9.106-1.97 16.374-5.91 21.741-3.93 5.368-9.13 8.083-15.6 8.083-6.35 0-11.2-2.444-14.52-7.289v24.143Zm0-38.888c0 2.548.56 4.511 1.73 5.911 1.15 1.399 2.59 2.109 4.31 2.109 2.67 0 4.51-1.253 5.53-3.738 1-2.486 1.5-6.307 1.5-11.445 0-5.952-.56-10.129-1.73-12.531-1.15-2.423-2.88-3.613-5.18-3.613-1.4 0-2.76.522-4.11 1.608-1.36 1.107-2.05 2.861-2.05 5.326v16.373Zm66.98-55.678v76.563h-22.06v-76.563h22.06Zm49.52 56.013 20.78 1.399c-1.24 5.618-4.39 10.4-9.44 14.369-5.06 3.947-11.91 5.931-20.53 5.931-9.61 0-17.28-2.778-22.98-8.333-5.72-5.556-8.58-12.427-8.58-20.634 0-8.542 2.82-15.727 8.46-21.595 5.64-5.869 13.18-8.793 22.6-8.793 9.1 0 16.47 2.757 22.09 8.292 5.62 5.513 8.44 13.032 8.44 22.555 0 .773-.02 1.859-.06 3.237h-38.12c.08 3.634.71 6.307 1.92 8.062 1.19 1.733 3.47 2.631 6.83 2.631 4.89 0 7.73-2.381 8.59-7.121Zm-1.61-14.808c-.04-3.822-.8-6.37-2.3-7.685-1.48-1.316-3.34-1.964-5.56-1.964-5.24 0-7.87 3.217-7.87 9.649h15.73Zm117.47 35.358h-21.67v-35.692c0-2.381-.36-4.052-1.05-5.012-.69-.961-1.88-1.42-3.63-1.42-4.16 0-6.23 3.028-6.23 9.126v32.998h-21.47V356c0-4.553-1.75-6.829-5.26-6.829-3.61 0-5.41 2.276-5.41 6.829v35.65h-21.59v-57.057h20.09v7.727c3.59-5.91 8.81-8.876 15.66-8.876 7.33 0 12.7 2.966 16 8.876 3.7-5.91 9.38-8.876 17.02-8.876 3.66 0 6.85.773 9.63 2.298 2.8 1.524 4.8 3.508 6.06 5.91 1.23 2.402 1.85 6.14 1.85 11.194v38.804Zm49.67-20.55 20.76 1.399c-1.21 5.618-4.37 10.4-9.44 14.369-5.06 3.947-11.91 5.931-20.53 5.931-9.61 0-17.25-2.778-22.98-8.333-5.72-5.556-8.58-12.427-8.58-20.634 0-8.542 2.82-15.727 8.46-21.595 5.66-5.869 13.18-8.793 22.6-8.793 9.1 0 16.47 2.757 22.09 8.292 5.62 5.513 8.44 13.032 8.44 22.555 0 .773-.02 1.859-.06 3.237h-38.1c.07 3.634.71 6.307 1.9 8.062 1.19 1.733 3.47 2.631 6.83 2.631 4.89 0 7.73-2.381 8.61-7.121Zm-1.61-14.808c-.04-3.822-.81-6.37-2.3-7.685-1.5-1.316-3.36-1.964-5.57-1.964-5.25 0-7.86 3.217-7.86 9.649h15.73Zm86.8 35.358h-22.39v-35.922c0-2.965-.44-4.845-1.36-5.659-.92-.815-2.05-1.233-3.42-1.233-4.06 0-6.08 2.841-6.08 8.521v34.293h-22.39v-57.057h20.78v8.082c3.05-6.14 8.52-9.231 16.39-9.231 4.14 0 7.63.815 10.51 2.402 2.84 1.587 4.89 3.634 6.12 6.161 1.21 2.506 1.84 6.892 1.84 13.137v36.506Zm47.01-57.057v14.473h-11.36v21.01c0 2.903.54 4.595 1.63 5.138a7.28 7.28 0 0 0 3.34.814c1.79 0 3.92-.313 6.39-.919v15.956c-4.39.836-8.73 1.274-12.99 1.274-6.89 0-11.93-1.483-15.16-4.448-3.22-2.945-4.85-7.665-4.85-14.139l.06-6.683v-18.003h-8.5v-14.473h8.5l.34-18.587 21.24-.355v18.942h11.36Zm65.7 57.057h-21.24c-.54-2.443-.79-5.096-.79-7.978-4.05 6.078-10.15 9.127-18.34 9.127-6.72 0-11.76-1.734-15.12-5.159-3.34-3.446-5.01-7.372-5.01-11.8 0-6.014 2.73-10.86 8.21-14.577 5.47-3.718 15.18-5.952 29.11-6.704v-1.295c0-2.527-.58-4.198-1.71-5.033-1.13-.815-2.8-1.232-4.97-1.232-5.14 0-8 2.088-8.59 6.307l-20.44-1.963c2.92-11.926 12.82-17.899 29.74-17.899 4.59 0 8.79.46 12.63 1.379 3.84.919 6.89 2.339 9.13 4.281 2.23 1.963 3.76 4.01 4.51 6.161.77 2.193 1.15 6.349 1.15 12.51v22.764c0 4.324.58 8.041 1.73 11.111Zm-23.18-26.649c-9.5 1.003-14.24 4.052-14.24 9.127 0 3.404 1.88 5.117 5.64 5.117 2.38 0 4.4-.711 6.09-2.131 1.65-1.399 2.51-4.532 2.51-9.377v-2.736Zm68.36-30.408v14.473h-11.39v21.01c0 2.903.55 4.595 1.63 5.138 1.09.543 2.22.814 3.36.814 1.8 0 3.91-.313 6.4-.919v15.956c-4.41.836-8.76 1.274-13.02 1.274-6.87 0-11.92-1.483-15.16-4.448-3.21-2.945-4.84-7.665-4.84-14.139l.06-6.683v-18.003h-8.5v-14.473h8.5l.35-18.587 21.22-.355v18.942h11.39Zm29.78-21.929v17.689h-22.39v-17.689h22.39Zm0 21.929v57.057h-22.39v-57.057h22.39Zm39.64 58.206c-9.46 0-16.96-2.966-22.52-8.834-5.57-5.89-8.37-12.803-8.37-20.718 0-8.5 2.92-15.601 8.73-21.282 5.8-5.68 13.34-8.521 22.66-8.521 9.37 0 16.91 2.799 22.62 8.396 5.7 5.618 8.56 12.635 8.56 21.094 0 8.5-2.9 15.6-8.67 21.302-5.78 5.702-13.43 8.563-23.01 8.563Zm.33-13.554c3.45 0 5.58-1.797 6.31-5.41.77-3.592 1.15-7.372 1.15-11.298 0-5.347-.53-9.19-1.59-11.549-1.11-2.36-3.01-3.53-5.81-3.53-2.57 0-4.45 1.211-5.62 3.655-1.19 2.422-1.79 6.411-1.79 11.988 0 6.537.63 10.86 1.84 12.969 1.23 2.13 3.07 3.175 5.51 3.175ZM2472 391.65h-22.37v-35.922c0-2.965-.44-4.845-1.36-5.659-.91-.815-2.04-1.233-3.42-1.233-4.05 0-6.08 2.841-6.08 8.521v34.293h-22.39v-57.057h20.78v8.082c3.05-6.14 8.53-9.231 16.4-9.231 4.13 0 7.62.815 10.48 2.402 2.86 1.587 4.91 3.634 6.14 6.161 1.21 2.506 1.82 6.892 1.82 13.137v36.506Z"/></svg>